<?xml version="1.0" encoding="utf-8"?>
<!-- Generator: Adobe Illustrator 27.5.0, SVG Export Plug-In . SVG Version: 6.00 Build 0)  -->
<svg version="1.1" id="Capa_1" xmlns="http://www.w3.org/2000/svg" xmlns:xlink="http://www.w3.org/1999/xlink" x="0px" y="0px"
	 viewBox="0 0 2122 2122" style="enable-background:new 0 0 2122 2122;" xml:space="preserve">
<rect x="0.012" y="0.004" style="fill:#FFFFFF;" width="2121.305" height="2121.313"/>
<g>
	<rect x="0.012" y="1428.07" style="fill:#F4E3CF;" width="2121.293" height="693.25"/>
	<g>
		
			<line style="fill:none;stroke:#31343C;stroke-width:4.989;stroke-linecap:round;stroke-linejoin:round;stroke-miterlimit:10;" x1="67.73" y1="1428.066" x2="2053.586" y2="1428.066"/>
		<g>
			
				<line style="fill:none;stroke:#31343C;stroke-width:4.989;stroke-linecap:round;stroke-linejoin:round;stroke-miterlimit:10;" x1="1631.031" y1="428.73" x2="1663.945" y2="428.73"/>
			
				<line style="fill:none;stroke:#31343C;stroke-width:4.989;stroke-linecap:round;stroke-linejoin:round;stroke-miterlimit:10;" x1="1387.137" y1="428.73" x2="1613.637" y2="428.73"/>
			
				<line style="fill:none;stroke:#31343C;stroke-width:4.989;stroke-linecap:round;stroke-linejoin:round;stroke-miterlimit:10;" x1="532.332" y1="652.68" x2="565.238" y2="652.68"/>
			
				<line style="fill:none;stroke:#31343C;stroke-width:4.989;stroke-linecap:round;stroke-linejoin:round;stroke-miterlimit:10;" x1="288.426" y1="652.68" x2="514.938" y2="652.68"/>
			
				<line style="fill:none;stroke:#31343C;stroke-width:4.989;stroke-linecap:round;stroke-linejoin:round;stroke-miterlimit:10;" x1="1117.563" y1="324.563" x2="1150.48" y2="324.563"/>
			
				<line style="fill:none;stroke:#31343C;stroke-width:4.989;stroke-linecap:round;stroke-linejoin:round;stroke-miterlimit:10;" x1="1166.984" y1="324.563" x2="1199.902" y2="324.563"/>
			
				<line style="fill:none;stroke:#31343C;stroke-width:4.989;stroke-linecap:round;stroke-linejoin:round;stroke-miterlimit:10;" x1="1216.406" y1="324.563" x2="1249.324" y2="324.563"/>
			
				<line style="fill:none;stroke:#31343C;stroke-width:4.989;stroke-linecap:round;stroke-linejoin:round;stroke-miterlimit:10;" x1="1265.832" y1="324.563" x2="1472.27" y2="324.563"/>
			
				<line style="fill:none;stroke:#31343C;stroke-width:4.989;stroke-linecap:round;stroke-linejoin:round;stroke-miterlimit:10;" x1="273.75" y1="1160.711" x2="306.668" y2="1160.711"/>
			
				<line style="fill:none;stroke:#31343C;stroke-width:4.989;stroke-linecap:round;stroke-linejoin:round;stroke-miterlimit:10;" x1="323.156" y1="1160.711" x2="529.621" y2="1160.711"/>
			
				<line style="fill:none;stroke:#31343C;stroke-width:4.989;stroke-linecap:round;stroke-linejoin:round;stroke-miterlimit:10;" x1="1005.574" y1="324.563" x2="1100.172" y2="324.563"/>
			
				<line style="fill:none;stroke:#31343C;stroke-width:4.989;stroke-linecap:round;stroke-linejoin:round;stroke-miterlimit:10;" x1="1570.715" y1="1250.57" x2="1603.629" y2="1250.57"/>
			
				<line style="fill:none;stroke:#31343C;stroke-width:4.989;stroke-linecap:round;stroke-linejoin:round;stroke-miterlimit:10;" x1="1620.137" y1="1250.57" x2="1653.051" y2="1250.57"/>
			
				<line style="fill:none;stroke:#31343C;stroke-width:4.989;stroke-linecap:round;stroke-linejoin:round;stroke-miterlimit:10;" x1="1458.727" y1="1250.57" x2="1553.32" y2="1250.57"/>
			
				<line style="fill:none;stroke:#31343C;stroke-width:4.989;stroke-linecap:round;stroke-linejoin:round;stroke-miterlimit:10;" x1="646.609" y1="392.109" x2="799.184" y2="392.109"/>
			
				<line style="fill:none;stroke:#31343C;stroke-width:4.989;stroke-linecap:round;stroke-linejoin:round;stroke-miterlimit:10;" x1="1500.48" y1="586.598" x2="1653.051" y2="586.598"/>
			
				<line style="fill:none;stroke:#31343C;stroke-width:4.989;stroke-linecap:round;stroke-linejoin:round;stroke-miterlimit:10;" x1="1691.258" y1="722.211" x2="1843.824" y2="722.211"/>
			
				<line style="fill:none;stroke:#31343C;stroke-width:4.989;stroke-linecap:round;stroke-linejoin:round;stroke-miterlimit:10;" x1="264.73" y1="932.957" x2="417.293" y2="932.957"/>
			
				<path style="fill:none;stroke:#31343C;stroke-width:4.989;stroke-linecap:round;stroke-linejoin:round;stroke-miterlimit:10;" d="
				M962.348,324.563c0,9.84-7.98,17.813-17.82,17.813c-9.84,0-17.813-7.973-17.813-17.813c0-9.836,7.973-17.816,17.813-17.816
				C954.367,306.746,962.348,314.727,962.348,324.563z"/>
			
				<path style="fill:none;stroke:#31343C;stroke-width:4.989;stroke-linecap:round;stroke-linejoin:round;stroke-miterlimit:10;" d="
				M358.828,775.883c0,9.844-7.98,17.816-17.824,17.816c-9.832,0-17.813-7.973-17.813-17.816c0-9.832,7.98-17.813,17.813-17.813
				C350.848,758.07,358.828,766.051,358.828,775.883z"/>
			
				<path style="fill:none;stroke:#31343C;stroke-width:4.989;stroke-linecap:round;stroke-linejoin:round;stroke-miterlimit:10;" d="
				M1665.301,865.867c0,9.844-7.973,17.816-17.824,17.816c-9.828,0-17.801-7.973-17.801-17.816c0-9.836,7.973-17.813,17.801-17.813
				C1657.328,848.055,1665.301,856.031,1665.301,865.867z"/>
			
				<path style="fill:none;stroke:#31343C;stroke-width:4.989;stroke-linecap:round;stroke-linejoin:round;stroke-miterlimit:10;" d="
				M1861.637,830.242c0,9.844-7.973,17.813-17.813,17.813c-9.832,0-17.813-7.969-17.813-17.813c0-9.84,7.98-17.816,17.813-17.816
				C1853.664,812.426,1861.637,820.402,1861.637,830.242z"/>
			
				<path style="fill:none;stroke:#31343C;stroke-width:4.989;stroke-linecap:round;stroke-linejoin:round;stroke-miterlimit:10;" d="
				M1666.656,1032.516c0,9.84-7.961,17.809-17.813,17.809c-9.844,0-17.813-7.969-17.813-17.809s7.969-17.82,17.813-17.82
				C1658.695,1014.695,1666.656,1022.676,1666.656,1032.516z"/>
			
				<path style="fill:none;stroke:#31343C;stroke-width:4.989;stroke-linecap:round;stroke-linejoin:round;stroke-miterlimit:10;" d="
				M462.02,1032.516c0,9.84-7.973,17.809-17.805,17.809c-9.852,0-17.82-7.969-17.82-17.809s7.969-17.82,17.82-17.82
				C454.047,1014.695,462.02,1022.676,462.02,1032.516z"/>
			<g>
				
					<line style="fill:none;stroke:#31343C;stroke-width:4.989;stroke-linecap:round;stroke-linejoin:round;stroke-miterlimit:10;" x1="1793.164" y1="434.898" x2="1793.766" y2="467.074"/>
				
					<line style="fill:none;stroke:#31343C;stroke-width:4.989;stroke-linecap:round;stroke-linejoin:round;stroke-miterlimit:10;" x1="1794.324" y1="496.691" x2="1794.918" y2="528.867"/>
				
					<line style="fill:none;stroke:#31343C;stroke-width:4.989;stroke-linecap:round;stroke-linejoin:round;stroke-miterlimit:10;" x1="1841.027" y1="481.008" x2="1808.852" y2="481.613"/>
				
					<line style="fill:none;stroke:#31343C;stroke-width:4.989;stroke-linecap:round;stroke-linejoin:round;stroke-miterlimit:10;" x1="1779.219" y1="482.16" x2="1747.055" y2="482.754"/>
				
					<line style="fill:none;stroke:#31343C;stroke-width:4.989;stroke-linecap:round;stroke-linejoin:round;stroke-miterlimit:10;" x1="1826.645" y1="448.043" x2="1804.309" y2="471.211"/>
				
					<line style="fill:none;stroke:#31343C;stroke-width:4.989;stroke-linecap:round;stroke-linejoin:round;stroke-miterlimit:10;" x1="1783.762" y1="492.551" x2="1761.438" y2="515.723"/>
				
					<line style="fill:none;stroke:#31343C;stroke-width:4.989;stroke-linecap:round;stroke-linejoin:round;stroke-miterlimit:10;" x1="1827.883" y1="514.496" x2="1804.711" y2="492.168"/>
				
					<line style="fill:none;stroke:#31343C;stroke-width:4.989;stroke-linecap:round;stroke-linejoin:round;stroke-miterlimit:10;" x1="1783.371" y1="471.605" x2="1760.199" y2="449.273"/>
			</g>
			<g>
				
					<line style="fill:none;stroke:#31343C;stroke-width:4.989;stroke-linecap:round;stroke-linejoin:round;stroke-miterlimit:10;" x1="357.961" y1="404" x2="358.555" y2="436.172"/>
				
					<line style="fill:none;stroke:#31343C;stroke-width:4.989;stroke-linecap:round;stroke-linejoin:round;stroke-miterlimit:10;" x1="359.102" y1="465.797" x2="359.695" y2="497.973"/>
				
					<line style="fill:none;stroke:#31343C;stroke-width:4.989;stroke-linecap:round;stroke-linejoin:round;stroke-miterlimit:10;" x1="405.813" y1="450.117" x2="373.641" y2="450.715"/>
				
					<line style="fill:none;stroke:#31343C;stroke-width:4.989;stroke-linecap:round;stroke-linejoin:round;stroke-miterlimit:10;" x1="344.008" y1="451.266" x2="311.84" y2="451.863"/>
				
					<line style="fill:none;stroke:#31343C;stroke-width:4.989;stroke-linecap:round;stroke-linejoin:round;stroke-miterlimit:10;" x1="391.43" y1="417.152" x2="369.109" y2="440.324"/>
				
					<line style="fill:none;stroke:#31343C;stroke-width:4.989;stroke-linecap:round;stroke-linejoin:round;stroke-miterlimit:10;" x1="348.547" y1="461.652" x2="326.223" y2="484.828"/>
				
					<line style="fill:none;stroke:#31343C;stroke-width:4.989;stroke-linecap:round;stroke-linejoin:round;stroke-miterlimit:10;" x1="392.668" y1="483.598" x2="369.508" y2="461.27"/>
				
					<line style="fill:none;stroke:#31343C;stroke-width:4.989;stroke-linecap:round;stroke-linejoin:round;stroke-miterlimit:10;" x1="348.156" y1="440.707" x2="324.977" y2="418.379"/>
			</g>
			<g>
				
					<line style="fill:none;stroke:#31343C;stroke-width:4.989;stroke-linecap:round;stroke-linejoin:round;stroke-miterlimit:10;" x1="305.789" y1="1217.973" x2="306.383" y2="1250.141"/>
				
					<line style="fill:none;stroke:#31343C;stroke-width:4.989;stroke-linecap:round;stroke-linejoin:round;stroke-miterlimit:10;" x1="306.941" y1="1279.766" x2="307.535" y2="1311.941"/>
				
					<line style="fill:none;stroke:#31343C;stroke-width:4.989;stroke-linecap:round;stroke-linejoin:round;stroke-miterlimit:10;" x1="353.645" y1="1264.082" x2="321.469" y2="1264.68"/>
				
					<line style="fill:none;stroke:#31343C;stroke-width:4.989;stroke-linecap:round;stroke-linejoin:round;stroke-miterlimit:10;" x1="291.848" y1="1265.23" x2="259.68" y2="1265.824"/>
				
					<line style="fill:none;stroke:#31343C;stroke-width:4.989;stroke-linecap:round;stroke-linejoin:round;stroke-miterlimit:10;" x1="339.27" y1="1231.117" x2="316.949" y2="1254.285"/>
				
					<line style="fill:none;stroke:#31343C;stroke-width:4.989;stroke-linecap:round;stroke-linejoin:round;stroke-miterlimit:10;" x1="296.398" y1="1275.625" x2="274.063" y2="1298.793"/>
				
					<line style="fill:none;stroke:#31343C;stroke-width:4.989;stroke-linecap:round;stroke-linejoin:round;stroke-miterlimit:10;" x1="340.5" y1="1297.566" x2="317.336" y2="1275.227"/>
				
					<line style="fill:none;stroke:#31343C;stroke-width:4.989;stroke-linecap:round;stroke-linejoin:round;stroke-miterlimit:10;" x1="295.996" y1="1254.668" x2="272.824" y2="1232.344"/>
			</g>
			<g>
				
					<line style="fill:none;stroke:#31343C;stroke-width:4.989;stroke-linecap:round;stroke-linejoin:round;stroke-miterlimit:10;" x1="1761.719" y1="1124.004" x2="1762.324" y2="1156.18"/>
				
					<line style="fill:none;stroke:#31343C;stroke-width:4.989;stroke-linecap:round;stroke-linejoin:round;stroke-miterlimit:10;" x1="1762.859" y1="1185.801" x2="1763.453" y2="1217.973"/>
				
					<line style="fill:none;stroke:#31343C;stroke-width:4.989;stroke-linecap:round;stroke-linejoin:round;stroke-miterlimit:10;" x1="1809.57" y1="1170.117" x2="1777.406" y2="1170.719"/>
				
					<line style="fill:none;stroke:#31343C;stroke-width:4.989;stroke-linecap:round;stroke-linejoin:round;stroke-miterlimit:10;" x1="1747.773" y1="1171.262" x2="1715.602" y2="1171.863"/>
				
					<line style="fill:none;stroke:#31343C;stroke-width:4.989;stroke-linecap:round;stroke-linejoin:round;stroke-miterlimit:10;" x1="1795.199" y1="1137.148" x2="1772.867" y2="1160.32"/>
				
					<line style="fill:none;stroke:#31343C;stroke-width:4.989;stroke-linecap:round;stroke-linejoin:round;stroke-miterlimit:10;" x1="1752.316" y1="1181.66" x2="1729.98" y2="1204.828"/>
				
					<line style="fill:none;stroke:#31343C;stroke-width:4.989;stroke-linecap:round;stroke-linejoin:round;stroke-miterlimit:10;" x1="1796.426" y1="1203.598" x2="1773.266" y2="1181.277"/>
				
					<line style="fill:none;stroke:#31343C;stroke-width:4.989;stroke-linecap:round;stroke-linejoin:round;stroke-miterlimit:10;" x1="1751.914" y1="1160.711" x2="1728.746" y2="1138.383"/>
			</g>
		</g>
	</g>
</g>
<path style="fill:#B0AFB5;" d="M1954.867,1909.078c0,20.688-400.363,37.461-894.203,37.461
	c-493.852,0-894.211-16.773-894.211-37.461s400.359-37.457,894.211-37.457C1554.504,1871.621,1954.867,1888.391,1954.867,1909.078z"
	/>
<g>
	<g>
		<g>
			<g>
				<path style="fill:#C0D1DA;" d="M1040.449,1906.934c-21.629,0-39.227-17.59-39.227-39.219V983.074
					c0-21.637,17.598-39.234,39.227-39.234h465.828c21.637,0,39.234,17.598,39.234,39.234v884.641
					c0,21.629-17.598,39.219-39.234,39.219H1040.449z"/>
				<path style="fill:#31343C;" d="M1506.277,946.059c20.441,0,37.016,16.563,37.016,37.016v884.641
					c0,20.434-16.574,37.004-37.016,37.004h-465.828c-20.445,0-37.008-16.57-37.008-37.004V983.074
					c0-20.453,16.563-37.016,37.008-37.016H1506.277 M1506.277,941.625h-465.828c-22.852,0-41.441,18.59-41.441,41.449v884.641
					c0,22.852,18.59,41.438,41.441,41.438h465.828c22.859,0,41.449-18.586,41.449-41.438V983.074
					C1547.727,960.215,1529.137,941.625,1506.277,941.625L1506.277,941.625z"/>
			</g>
		</g>
		<g>
			<path style="fill:#FFFFFF;" d="M1031.883,1855.422c-1.223,0-2.215-0.992-2.215-2.215V997.566c0-1.223,0.992-2.219,2.215-2.219
				h219.125c0.719,0,1.387,0.348,1.805,0.926c3.488,4.863,5.258,11.273,5.258,19.055c0,8.43,6.855,15.289,15.281,15.289
				c8.434,0,15.293-6.859,15.293-15.289c0-7.762,1.77-14.172,5.258-19.055c0.414-0.578,1.086-0.926,1.805-0.926h219.113
				c1.223,0,2.219,0.996,2.219,2.219v855.641c0,1.223-0.996,2.215-2.219,2.215H1031.883z"/>
			<path style="fill:#31343C;" d="M1514.82,997.566v855.641h-482.938V997.566h219.125c2.809,3.91,4.844,9.563,4.844,17.762
				c0,9.668,7.844,17.504,17.5,17.504c9.676,0,17.512-7.836,17.512-17.504c0-8.199,2.047-13.852,4.844-17.762H1514.82
				 M1514.82,993.133h-219.113c-1.434,0-2.777,0.691-3.605,1.852c-3.766,5.266-5.672,12.109-5.672,20.344
				c0,7.207-5.867,13.07-13.078,13.07c-7.203,0-13.066-5.863-13.066-13.07c0-8.254-1.91-15.098-5.672-20.352
				c-0.832-1.16-2.176-1.844-3.605-1.844h-219.125c-2.449,0-4.434,1.98-4.434,4.434v855.641c0,2.449,1.984,4.434,4.434,4.434
				h482.938c2.453,0,4.434-1.984,4.434-4.434V997.566C1519.254,995.113,1517.273,993.133,1514.82,993.133L1514.82,993.133z"/>
		</g>
		<g>
			<path style="fill:#838E95;" d="M1130.367,977.867c-4.461,0-8.094-3.641-8.094-8.117c0-4.469,3.633-8.098,8.094-8.098h285.98
				c4.469,0,8.102,3.629,8.102,8.098c0,4.477-3.633,8.117-8.102,8.117H1130.367z"/>
			<path style="fill:#31343C;" d="M1416.348,963.871c3.246,0,5.887,2.629,5.887,5.879c0,3.269-2.641,5.898-5.887,5.898h-285.98
				c-3.246,0-5.875-2.629-5.875-5.898c0-3.25,2.629-5.879,5.875-5.879H1416.348 M1416.348,959.438h-285.98
				c-5.684,0-10.309,4.629-10.309,10.313c0,5.699,4.625,10.332,10.309,10.332h285.98c5.691,0,10.32-4.633,10.32-10.332
				C1426.668,964.066,1422.039,959.438,1416.348,959.438L1416.348,959.438z"/>
		</g>
		<g>
			<path style="fill:#838E95;" d="M1130.367,1888.113c-4.461,0-8.094-3.633-8.094-8.102s3.633-8.102,8.094-8.102h285.98
				c4.469,0,8.102,3.633,8.102,8.102s-3.633,8.102-8.102,8.102H1130.367z"/>
			<path style="fill:#31343C;" d="M1416.348,1874.125c3.246,0,5.887,2.637,5.887,5.887c0,3.254-2.641,5.887-5.887,5.887h-285.98
				c-3.246,0-5.875-2.633-5.875-5.887c0-3.25,2.629-5.887,5.875-5.887H1416.348 M1416.348,1869.691h-285.98
				c-5.684,0-10.309,4.629-10.309,10.32s4.625,10.32,10.309,10.32h285.98c5.691,0,10.32-4.629,10.32-10.32
				S1422.039,1869.691,1416.348,1869.691L1416.348,1869.691z"/>
		</g>
	</g>
	<g>
		<g>
			<path style="fill:#F4AA2A;" d="M1747.004,1843.078c-1.324,0-2.402-1.078-2.402-2.402v-206.73c0-1.328,1.078-2.402,2.402-2.402
				h146.191c20.977,0,38.035,17.07,38.035,38.055v135.434c0,20.98-17.059,38.047-38.035,38.047H1747.004z M1874.742,1813.957
				c13.703,0,24.852-11.152,24.852-24.859v-103.563c0-13.711-11.148-24.867-24.852-24.867h-109.383v153.289H1874.742z"/>
			<path style="fill:#31343C;" d="M1893.195,1633.945c19.676,0,35.637,15.965,35.637,35.652v135.434
				c0,19.684-15.961,35.645-35.637,35.645h-146.191v-206.73H1893.195 M1762.957,1816.359h111.785
				c15.043,0,27.254-12.215,27.254-27.262v-103.563c0-15.063-12.211-27.27-27.254-27.27h-111.785V1816.359 M1893.195,1629.141
				h-146.191c-2.652,0-4.805,2.148-4.805,4.805v206.73c0,2.656,2.152,4.805,4.805,4.805h146.191
				c22.301,0,40.438-18.145,40.438-40.449v-135.434C1933.633,1647.289,1915.496,1629.141,1893.195,1629.141L1893.195,1629.141z
				 M1767.762,1663.07h106.98c12.379,0,22.449,10.074,22.449,22.465v103.563c0,12.383-10.07,22.457-22.449,22.457h-106.98V1663.07
				L1767.762,1663.07z"/>
		</g>
		<g>
			<path style="fill:#F4AA2A;" d="M1681.691,1921.512c-95.383,0-147.914-39.516-147.914-111.277v-194.922
				c0-1.324,1.078-2.402,2.402-2.402h290.988c1.328,0,2.402,1.078,2.402,2.402v194.922
				C1829.57,1881.996,1777.051,1921.512,1681.691,1921.512z"/>
			<path style="fill:#31343C;" d="M1827.168,1615.313v194.922c0,80.359-65.137,108.875-145.477,108.875
				c-80.371,0-145.512-28.516-145.512-108.875v-194.922H1827.168 M1827.168,1610.508H1536.18c-2.652,0-4.801,2.148-4.801,4.805
				v194.922c0,73.309,53.383,113.68,150.313,113.68c96.914,0,150.281-40.371,150.281-113.68v-194.922
				C1831.973,1612.656,1829.824,1610.508,1827.168,1610.508L1827.168,1610.508z"/>
		</g>
		<g>
			<path style="fill:#C46D1F;" d="M1712.492,1901.41c-75.672,0-137.012-26.863-137.012-102.539v-145.555h-39.301v156.918
				c0,80.359,65.141,108.875,145.512,108.875c46.633,0,88.113-9.641,114.746-33.418
				C1773.246,1896.688,1744.129,1901.41,1712.492,1901.41z"/>
		</g>
	</g>
	<g>
		<g>
			<path style="fill:#FFFFFF;" d="M1156.18,1574.68c-1.266,0-2.289-1.023-2.289-2.289v-385.25c0-1.266,1.023-2.289,2.289-2.289
				h685.762c1.266,0,2.289,1.023,2.289,2.289v385.25c0,1.266-1.023,2.289-2.289,2.289H1156.18z"/>
			<path style="fill:#31343C;" d="M1841.941,1187.141v385.25H1156.18v-385.25H1841.941 M1841.941,1182.559H1156.18
				c-2.535,0-4.586,2.051-4.586,4.582v385.25c0,2.531,2.051,4.586,4.586,4.586h685.762c2.535,0,4.586-2.055,4.586-4.586v-385.25
				C1846.527,1184.609,1844.477,1182.559,1841.941,1182.559L1841.941,1182.559z"/>
		</g>
		<g>
			<path style="fill:#F4AA2A;" d="M1156.18,1468.266c-1.266,0-2.289-1.023-2.289-2.289V1268.07c0-1.266,1.023-2.289,2.289-2.289
				h685.762c1.266,0,2.289,1.023,2.289,2.289v197.906c0,1.266-1.023,2.289-2.289,2.289H1156.18z"/>
			<path style="fill:#31343C;" d="M1841.941,1268.07v197.906H1156.18V1268.07H1841.941 M1841.941,1263.488H1156.18
				c-2.535,0-4.586,2.051-4.586,4.582v197.906c0,2.531,2.051,4.582,4.586,4.582h685.762c2.535,0,4.586-2.051,4.586-4.582V1268.07
				C1846.527,1265.539,1844.477,1263.488,1841.941,1263.488L1841.941,1263.488z"/>
		</g>
		<g>
			<path style="fill:#C0D1DA;" d="M1156.18,1221.961c-1.266,0-2.289-1.023-2.289-2.289v-32.531c0-1.266,1.023-2.289,2.289-2.289
				h685.762c1.266,0,2.289,1.023,2.289,2.289v32.531c0,1.266-1.023,2.289-2.289,2.289H1156.18z"/>
			<path style="fill:#31343C;" d="M1841.941,1187.141v32.531H1156.18v-32.531H1841.941 M1841.941,1182.559H1156.18
				c-2.535,0-4.586,2.051-4.586,4.582v32.531c0,2.535,2.051,4.586,4.586,4.586h685.762c2.535,0,4.586-2.051,4.586-4.586v-32.531
				C1846.527,1184.609,1844.477,1182.559,1841.941,1182.559L1841.941,1182.559z"/>
		</g>
		<g>
			<path style="fill:#7B858D;" d="M1477.172,1247.723c-1.27,0-2.293-1.024-2.293-2.293v-7.301c0-1.27,1.023-2.293,2.293-2.293
				h43.789c1.266,0,2.289,1.023,2.289,2.293v7.301c0,1.27-1.023,2.293-2.289,2.293H1477.172z"/>
			<path style="fill:#31343C;" d="M1520.961,1238.129v7.301h-43.789v-7.301H1520.961 M1520.961,1233.543h-43.789
				c-2.535,0-4.586,2.051-4.586,4.586v7.301c0,2.535,2.051,4.586,4.586,4.586h43.789c2.535,0,4.586-2.051,4.586-4.586v-7.301
				C1525.547,1235.594,1523.496,1233.543,1520.961,1233.543L1520.961,1233.543z"/>
		</g>
		<g>
			<path style="fill:#7B858D;" d="M1169.277,1209.344c-1.27,0-2.293-1.023-2.293-2.289v-7.301c0-1.266,1.023-2.289,2.293-2.289
				h21.895c1.266,0,2.289,1.023,2.289,2.289v7.301c0,1.266-1.023,2.289-2.289,2.289H1169.277z"/>
			<path style="fill:#31343C;" d="M1191.172,1199.754v7.301h-21.895v-7.301H1191.172 M1191.172,1195.172h-21.895
				c-2.535,0-4.586,2.051-4.586,4.582v7.301c0,2.531,2.051,4.582,4.586,4.582h21.895c2.531,0,4.582-2.051,4.582-4.582v-7.301
				C1195.754,1197.223,1193.703,1195.172,1191.172,1195.172L1191.172,1195.172z"/>
		</g>
		<g>
			<path style="fill:#7B858D;" d="M1202.895,1209.344c-1.27,0-2.293-1.023-2.293-2.289v-7.301c0-1.266,1.023-2.289,2.293-2.289
				h21.895c1.266,0,2.289,1.023,2.289,2.289v7.301c0,1.266-1.023,2.289-2.289,2.289H1202.895z"/>
			<path style="fill:#31343C;" d="M1224.789,1199.754v7.301h-21.895v-7.301H1224.789 M1224.789,1195.172h-21.895
				c-2.535,0-4.586,2.051-4.586,4.582v7.301c0,2.531,2.051,4.582,4.586,4.582h21.895c2.531,0,4.582-2.051,4.582-4.582v-7.301
				C1229.371,1197.223,1227.32,1195.172,1224.789,1195.172L1224.789,1195.172z"/>
		</g>
		<g>
			<path style="fill:#7B858D;" d="M1236.5,1209.344c-1.266,0-2.289-1.023-2.289-2.289v-7.301c0-1.266,1.023-2.289,2.289-2.289
				h21.906c1.266,0,2.289,1.023,2.289,2.289v7.301c0,1.266-1.023,2.289-2.289,2.289H1236.5z"/>
			<path style="fill:#31343C;" d="M1258.406,1199.754v7.301H1236.5v-7.301H1258.406 M1258.406,1195.172H1236.5
				c-2.531,0-4.586,2.051-4.586,4.582v7.301c0,2.531,2.055,4.582,4.586,4.582h21.906c2.531,0,4.582-2.051,4.582-4.582v-7.301
				C1262.988,1197.223,1260.938,1195.172,1258.406,1195.172L1258.406,1195.172z"/>
		</g>
		<g>
			<path style="fill:#7B858D;" d="M1809.273,1214.168c-0.609,0-1.191-0.246-1.621-0.672l-1.441-1.453
				c-0.887-0.898-0.887-2.344,0.004-3.238l5.398-5.398l-5.398-5.395c-0.891-0.898-0.891-2.348,0-3.246l1.441-1.441
				c0.449-0.449,1.039-0.668,1.625-0.668c0.582,0,1.172,0.219,1.621,0.668l5.395,5.399l5.391-5.399
				c0.449-0.441,1.039-0.668,1.625-0.668c0.582,0,1.168,0.219,1.617,0.664l1.449,1.441c0.43,0.43,0.676,1.012,0.676,1.621
				c0.004,0.609-0.242,1.195-0.676,1.629l-5.398,5.395l5.406,5.398c0.426,0.426,0.668,1.012,0.668,1.621
				c0,0.609-0.242,1.188-0.668,1.621l-1.453,1.453c-0.434,0.43-1.012,0.668-1.621,0.668l0,0c-0.609,0-1.195-0.238-1.625-0.672
				l-5.391-5.398l-5.395,5.398c-0.43,0.434-1.016,0.672-1.621,0.672C1809.281,1214.168,1809.281,1214.168,1809.273,1214.168z"/>
			<path style="fill:#31343C;" d="M1823.313,1194.945l1.449,1.445l-7.023,7.016l7.023,7.02l-1.449,1.453l-7.016-7.027l-7.016,7.027
				l-1.445-1.453l7.016-7.02l-7.016-7.016l1.445-1.445l7.016,7.016L1823.313,1194.945 M1823.313,1190.363
				c-1.176,0-2.352,0.445-3.242,1.344l-3.773,3.77l-3.777-3.77c-0.859-0.863-2.023-1.344-3.238-1.344
				c-1.219,0-2.383,0.48-3.242,1.344l-1.441,1.441c-1.793,1.789-1.793,4.691,0,6.48l3.777,3.777l-3.781,3.777
				c-1.785,1.789-1.789,4.68-0.012,6.473l1.441,1.449c0.863,0.863,2.027,1.352,3.25,1.355h0.008c1.215,0,2.379-0.48,3.242-1.344
				l3.773-3.777l3.77,3.777c0.863,0.863,2.027,1.344,3.246,1.344l0,0c1.215,0,2.383-0.48,3.238-1.344l1.453-1.453
				c0.863-0.855,1.344-2.02,1.344-3.238s-0.48-2.383-1.344-3.246l-3.781-3.773l3.781-3.773c0.863-0.863,1.344-2.031,1.344-3.25
				c-0.004-1.219-0.492-2.387-1.355-3.242l-1.449-1.445C1825.648,1190.805,1824.48,1190.363,1823.313,1190.363L1823.313,1190.363z"
				/>
		</g>
		<g>
			<path style="fill:#7B858D;" d="M1197.758,1501.707c-1.266,0-2.289-1.023-2.289-2.289v-7.301c0-1.266,1.023-2.289,2.289-2.289
				h43.801c1.266,0,2.289,1.023,2.289,2.289v7.301c0,1.266-1.023,2.289-2.289,2.289H1197.758z"/>
			<path style="fill:#31343C;" d="M1241.559,1492.117v7.301h-43.801v-7.301H1241.559 M1241.559,1487.535h-43.801
				c-2.535,0-4.586,2.051-4.586,4.582v7.301c0,2.531,2.051,4.582,4.586,4.582h43.801c2.531,0,4.582-2.051,4.582-4.582v-7.301
				C1246.141,1489.586,1244.09,1487.535,1241.559,1487.535L1241.559,1487.535z"/>
		</g>
		<g>
			<path style="fill:#7B858D;" d="M1197.758,1521.313c-1.266,0-2.289-1.023-2.289-2.289v-7.301c0-1.266,1.023-2.289,2.289-2.289
				h240.699c1.266,0,2.289,1.023,2.289,2.289v7.301c0,1.266-1.023,2.289-2.289,2.289H1197.758z"/>
			<path style="fill:#31343C;" d="M1438.457,1511.723v7.301h-240.699v-7.301H1438.457 M1438.457,1507.141h-240.699
				c-2.535,0-4.586,2.051-4.586,4.582v7.301c0,2.531,2.051,4.582,4.586,4.582h240.699c2.535,0,4.586-2.051,4.586-4.582v-7.301
				C1443.043,1509.191,1440.992,1507.141,1438.457,1507.141L1438.457,1507.141z"/>
		</g>
		<g>
			<path style="fill:#7B858D;" d="M1197.758,1533.18c-1.266,0-2.289-1.023-2.289-2.289v-7.305c0-1.266,1.023-2.289,2.289-2.289
				h240.699c1.266,0,2.289,1.023,2.289,2.289v7.305c0,1.266-1.023,2.289-2.289,2.289H1197.758z"/>
			<path style="fill:#31343C;" d="M1438.457,1523.586v7.305h-240.699v-7.305H1438.457 M1438.457,1519.004h-240.699
				c-2.535,0-4.586,2.051-4.586,4.582v7.305c0,2.531,2.051,4.582,4.586,4.582h240.699c2.535,0,4.586-2.051,4.586-4.582v-7.305
				C1443.043,1521.055,1440.992,1519.004,1438.457,1519.004L1438.457,1519.004z"/>
		</g>
		<g>
			<path style="fill:#7B858D;" d="M1197.758,1545.043c-1.266,0-2.289-1.023-2.289-2.289v-7.305c0-1.266,1.023-2.289,2.289-2.289
				h240.699c1.266,0,2.289,1.023,2.289,2.289v7.305c0,1.266-1.023,2.289-2.289,2.289H1197.758z"/>
			<path style="fill:#31343C;" d="M1438.457,1535.449v7.305h-240.699v-7.305H1438.457 M1438.457,1530.867h-240.699
				c-2.535,0-4.586,2.051-4.586,4.582v7.305c0,2.531,2.051,4.586,4.586,4.586h240.699c2.535,0,4.586-2.055,4.586-4.586v-7.305
				C1443.043,1532.918,1440.992,1530.867,1438.457,1530.867L1438.457,1530.867z"/>
		</g>
		<g>
			<path style="fill:#7B858D;" d="M1197.758,1556.918c-1.266,0-2.289-1.023-2.289-2.293v-7.301c0-1.266,1.023-2.289,2.289-2.289
				h240.699c1.266,0,2.289,1.023,2.289,2.289v7.301c0,1.27-1.023,2.293-2.289,2.293H1197.758z"/>
			<path style="fill:#31343C;" d="M1438.457,1547.324v7.301h-240.699v-7.301H1438.457 M1438.457,1542.738h-240.699
				c-2.535,0-4.586,2.051-4.586,4.586v7.301c0,2.535,2.051,4.586,4.586,4.586h240.699c2.535,0,4.586-2.051,4.586-4.586v-7.301
				C1443.043,1544.789,1440.992,1542.738,1438.457,1542.738L1438.457,1542.738z"/>
		</g>
		<g>
			<path style="fill:#7B858D;" d="M1637.324,1521.313c-1.266,0-2.289-1.023-2.289-2.289v-7.301c0-1.266,1.023-2.289,2.289-2.289
				h178.973c1.266,0,2.289,1.023,2.289,2.289v7.301c0,1.266-1.023,2.289-2.289,2.289H1637.324z"/>
			<path style="fill:#31343C;" d="M1816.297,1511.723v7.301h-178.973v-7.301H1816.297 M1816.297,1507.141h-178.973
				c-2.531,0-4.582,2.051-4.582,4.582v7.301c0,2.531,2.051,4.582,4.582,4.582h178.973c2.531,0,4.582-2.051,4.582-4.582v-7.301
				C1820.879,1509.191,1818.828,1507.141,1816.297,1507.141L1816.297,1507.141z"/>
		</g>
		<g>
			<path style="fill:#7B858D;" d="M1637.324,1533.18c-1.266,0-2.289-1.023-2.289-2.289v-7.305c0-1.266,1.023-2.289,2.289-2.289
				h178.973c1.266,0,2.289,1.023,2.289,2.289v7.305c0,1.266-1.023,2.289-2.289,2.289H1637.324z"/>
			<path style="fill:#31343C;" d="M1816.297,1523.586v7.305h-178.973v-7.305H1816.297 M1816.297,1519.004h-178.973
				c-2.531,0-4.582,2.051-4.582,4.582v7.305c0,2.531,2.051,4.582,4.582,4.582h178.973c2.531,0,4.582-2.051,4.582-4.582v-7.305
				C1820.879,1521.055,1818.828,1519.004,1816.297,1519.004L1816.297,1519.004z"/>
		</g>
		<g>
			<path style="fill:#7B858D;" d="M1637.324,1545.043c-1.266,0-2.289-1.023-2.289-2.289v-7.305c0-1.266,1.023-2.289,2.289-2.289
				h178.973c1.266,0,2.289,1.023,2.289,2.289v7.305c0,1.266-1.023,2.289-2.289,2.289H1637.324z"/>
			<path style="fill:#31343C;" d="M1816.297,1535.449v7.305h-178.973v-7.305H1816.297 M1816.297,1530.867h-178.973
				c-2.531,0-4.582,2.051-4.582,4.582v7.305c0,2.531,2.051,4.586,4.582,4.586h178.973c2.531,0,4.582-2.055,4.582-4.586v-7.305
				C1820.879,1532.918,1818.828,1530.867,1816.297,1530.867L1816.297,1530.867z"/>
		</g>
		<g>
			<path style="fill:#7B858D;" d="M1637.324,1556.918c-1.266,0-2.289-1.023-2.289-2.293v-7.301c0-1.266,1.023-2.289,2.289-2.289
				h178.973c1.266,0,2.289,1.023,2.289,2.289v7.301c0,1.27-1.023,2.293-2.289,2.293H1637.324z"/>
			<path style="fill:#31343C;" d="M1816.297,1547.324v7.301h-178.973v-7.301H1816.297 M1816.297,1542.738h-178.973
				c-2.531,0-4.582,2.051-4.582,4.586v7.301c0,2.535,2.051,4.586,4.582,4.586h178.973c2.531,0,4.582-2.051,4.582-4.586v-7.301
				C1820.879,1544.789,1818.828,1542.738,1816.297,1542.738L1816.297,1542.738z"/>
		</g>
		<g>
			<path style="fill:#7B858D;" d="M1544.91,1247.723c-1.266,0-2.289-1.024-2.289-2.293v-7.301c0-1.27,1.023-2.293,2.289-2.293
				h43.801c1.266,0,2.289,1.023,2.289,2.293v7.301c0,1.27-1.023,2.293-2.289,2.293H1544.91z"/>
			<path style="fill:#31343C;" d="M1588.711,1238.129v7.301h-43.801v-7.301H1588.711 M1588.711,1233.543h-43.801
				c-2.531,0-4.582,2.051-4.582,4.586v7.301c0,2.535,2.051,4.586,4.582,4.586h43.801c2.535,0,4.586-2.051,4.586-4.586v-7.301
				C1593.297,1235.594,1591.246,1233.543,1588.711,1233.543L1588.711,1233.543z"/>
		</g>
		<g>
			<path style="fill:#7B858D;" d="M1612.652,1247.723c-1.266,0-2.289-1.024-2.289-2.293v-7.301c0-1.27,1.023-2.293,2.289-2.293
				h43.801c1.266,0,2.289,1.023,2.289,2.293v7.301c0,1.27-1.023,2.293-2.289,2.293H1612.652z"/>
			<path style="fill:#31343C;" d="M1656.453,1238.129v7.301h-43.801v-7.301H1656.453 M1656.453,1233.543h-43.801
				c-2.531,0-4.586,2.051-4.586,4.586v7.301c0,2.535,2.055,4.586,4.586,4.586h43.801c2.531,0,4.586-2.051,4.586-4.586v-7.301
				C1661.039,1235.594,1658.984,1233.543,1656.453,1233.543L1656.453,1233.543z"/>
		</g>
		<g>
			<path style="fill:#7B858D;" d="M1680.383,1247.723c-1.266,0-2.289-1.024-2.289-2.293v-7.301c0-1.27,1.023-2.293,2.289-2.293
				h43.801c1.266,0,2.289,1.023,2.289,2.293v7.301c0,1.27-1.023,2.293-2.289,2.293H1680.383z"/>
			<path style="fill:#31343C;" d="M1724.184,1238.129v7.301h-43.801v-7.301H1724.184 M1724.184,1233.543h-43.801
				c-2.531,0-4.582,2.051-4.582,4.586v7.301c0,2.535,2.051,4.586,4.582,4.586h43.801c2.535,0,4.586-2.051,4.586-4.586v-7.301
				C1728.77,1235.594,1726.719,1233.543,1724.184,1233.543L1724.184,1233.543z"/>
		</g>
		<g>
			<path style="fill:#7B858D;" d="M1748.137,1247.723c-1.27,0-2.293-1.024-2.293-2.293v-7.301c0-1.27,1.023-2.293,2.293-2.293
				h43.797c1.27,0,2.293,1.023,2.293,2.293v7.301c0,1.27-1.023,2.293-2.293,2.293H1748.137z"/>
			<path style="fill:#31343C;" d="M1791.934,1238.129v7.301h-43.797v-7.301H1791.934 M1791.934,1233.543h-43.797
				c-2.535,0-4.586,2.051-4.586,4.586v7.301c0,2.535,2.051,4.586,4.586,4.586h43.797c2.535,0,4.586-2.051,4.586-4.586v-7.301
				C1796.52,1235.594,1794.469,1233.543,1791.934,1233.543L1791.934,1233.543z"/>
		</g>
		<g>
			<path style="fill:#FFFFFF;" d="M1458.363,1443.559c-1.266,0-2.289-1.023-2.289-2.289v-151.273c0-1.266,1.023-2.289,2.289-2.289
				h357.934c1.266,0,2.289,1.023,2.289,2.289v151.273c0,1.266-1.023,2.289-2.289,2.289H1458.363z"/>
			<path style="fill:#31343C;" d="M1816.297,1289.996v151.273h-357.934v-151.273H1816.297 M1816.297,1285.41h-357.934
				c-2.531,0-4.582,2.051-4.582,4.586v151.273c0,2.531,2.051,4.582,4.582,4.582h357.934c2.531,0,4.582-2.051,4.582-4.582v-151.273
				C1820.879,1287.461,1818.828,1285.41,1816.297,1285.41L1816.297,1285.41z"/>
		</g>
		<g>
			<g>
				<path style="fill:#E86C52;" d="M1488.738,1554.676c-4.672,0-8.469-3.797-8.469-8.457v-49.992c0-4.672,3.797-8.473,8.469-8.473
					h49.984c4.68,0,8.48,3.801,8.48,8.473v49.992c0,4.66-3.801,8.457-8.48,8.457H1488.738z"/>
				<path style="fill:#31343C;" d="M1538.723,1490.043c3.422,0,6.188,2.766,6.188,6.184v49.992c0,3.406-2.766,6.168-6.188,6.168
					h-49.984c-3.402,0-6.18-2.762-6.18-6.168v-49.992c0-3.418,2.777-6.184,6.18-6.184H1538.723 M1538.723,1485.457h-49.984
					c-5.934,0-10.766,4.828-10.766,10.77v49.992c0,5.93,4.832,10.75,10.766,10.75h49.984c5.941,0,10.773-4.82,10.773-10.75v-49.992
					C1549.496,1490.285,1544.664,1485.457,1538.723,1485.457L1538.723,1485.457z"/>
			</g>
			<g>
				<path style="fill:#FFFFFF;" d="M1497.934,1541.246c-1.266,0-2.289-1.02-2.289-2.289v-19.098
					c-2.883-1.848-4.676-5.051-4.676-8.535c0-5.59,4.547-10.133,10.133-10.133c3.156,0,5.984,1.449,7.844,3.723
					c1.863-2.273,4.688-3.723,7.844-3.723c5.59,0,10.137,4.543,10.137,10.133c0,3.652-2,7.012-5.109,8.789v1.09l11.754-3.441
					c0.207-0.066,0.43-0.094,0.641-0.094c0.488,0,0.977,0.156,1.375,0.453c0.582,0.434,0.918,1.113,0.918,1.836v16.41
					c0,0.719-0.336,1.402-0.918,1.836c-0.398,0.297-0.883,0.453-1.375,0.453c-0.211,0-0.434-0.031-0.641-0.094l-11.754-3.438v3.832
					c0,1.27-1.02,2.289-2.289,2.289H1497.934z M1516.789,1509.727c-0.875,0-1.586,0.715-1.586,1.598s0.711,1.598,1.586,1.598
					c0.887,0,1.609-0.715,1.609-1.598S1517.676,1509.727,1516.789,1509.727z M1501.102,1509.727c-0.883,0-1.598,0.715-1.598,1.598
					s0.715,1.598,1.598,1.598s1.598-0.715,1.598-1.598C1502.699,1510.426,1502,1509.727,1501.102,1509.727z"/>
				<path style="fill:#31343C;" d="M1516.789,1503.48c4.336,0,7.844,3.508,7.844,7.844c0,3.359-2.121,6.234-5.105,7.34v5.602
					l14.684-4.309v16.41l-14.684-4.305v6.895h-21.594v-20.461c-2.746-1.219-4.676-3.965-4.676-7.172c0-4.336,3.52-7.844,7.844-7.844
					c4.336,0,7.844,3.508,7.844,7.844c0,2.43-1.102,4.605-2.836,6.039h5.684c-1.734-1.434-2.848-3.609-2.848-6.039
					C1508.945,1506.988,1512.465,1503.48,1516.789,1503.48 M1516.789,1515.211c2.156,0,3.898-1.742,3.898-3.887
					c0-2.152-1.742-3.887-3.898-3.887c-2.141,0-3.879,1.734-3.879,3.887C1512.91,1513.469,1514.648,1515.211,1516.789,1515.211
					 M1501.102,1515.211c2.152,0,3.887-1.742,3.887-3.887c0-2.152-1.734-3.887-3.887-3.887c-2.145,0-3.887,1.734-3.887,3.887
					C1497.215,1513.469,1498.957,1515.211,1501.102,1515.211 M1516.789,1498.895c-2.973,0-5.699,1.047-7.844,2.797
					c-2.145-1.75-4.871-2.797-7.844-2.797c-6.848,0-12.43,5.578-12.43,12.43c0,3.828,1.77,7.379,4.68,9.703v17.93
					c0,2.535,2.051,4.586,4.582,4.586h21.594c2.535,0,4.586-2.051,4.586-4.586v-0.773l8.813,2.582
					c0.418,0.121,0.859,0.184,1.285,0.184c0.98,0,1.945-0.316,2.75-0.914c1.156-0.867,1.836-2.227,1.836-3.668v-16.41
					c0-1.441-0.68-2.805-1.836-3.668c-0.805-0.602-1.77-0.918-2.75-0.918c-0.434,0-0.867,0.066-1.289,0.188l-5.121,1.5
					c0.91-1.738,1.418-3.699,1.418-5.734C1529.219,1504.473,1523.641,1498.895,1516.789,1498.895L1516.789,1498.895z"/>
			</g>
		</g>
		<g>
			<path style="fill:#F4AA2A;" d="M1563.719,1554.676c-4.68,0-8.477-3.797-8.477-8.457v-49.992c0-4.672,3.797-8.473,8.477-8.473
				h49.988c4.672,0,8.465,3.801,8.465,8.473v49.992c0,4.66-3.793,8.457-8.465,8.457H1563.719z"/>
			<path style="fill:#31343C;" d="M1613.707,1490.043c3.398,0,6.176,2.766,6.176,6.184v49.992c0,3.406-2.777,6.168-6.176,6.168
				h-49.988c-3.422,0-6.188-2.762-6.188-6.168v-49.992c0-3.418,2.766-6.184,6.188-6.184H1613.707 M1613.707,1485.457h-49.988
				c-5.941,0-10.773,4.828-10.773,10.77v49.992c0,5.93,4.832,10.75,10.773,10.75h49.988c5.934,0,10.762-4.82,10.762-10.75v-49.992
				C1624.469,1490.285,1619.641,1485.457,1613.707,1485.457L1613.707,1485.457z"/>
		</g>
	</g>
	<g>
		<g>
			<g>
				<polygon style="fill:#31343C;" points="446.242,748.191 443.805,744.644 680.898,487.699 683.355,491.25 				"/>
			</g>
		</g>
		<g>
			<g>
				<polygon style="fill:#31343C;" points="1370.277,750.859 1372.715,747.297 683.5,487.699 681.055,491.25 				"/>
			</g>
		</g>
		<g>
			<g>
				<g>
					<g>
						<path style="fill:#F4AA2A;" d="M508.918,828.215c-1.371,0-2.48-1.109-2.48-2.477V814.25l-32.449-52.949v57.25
							c0,1.367-1.109,2.48-2.48,2.48h-14.363c-1.367,0-2.48-1.113-2.48-2.48v-69.473c0-1.367,1.113-2.477,2.48-2.477h26.641
							c0.863,0,1.668,0.445,2.117,1.184l20.535,33.523v-39.418c0-1.371,1.109-2.48,2.48-2.48h14.379c1.371,0,2.48,1.109,2.48,2.48
							v4.711h4.703c0.863,0,1.664,0.445,2.113,1.184l23.617,38.527v-37.234c0-1.367,1.109-2.477,2.477-2.477h14.363
							c1.371,0,2.481,1.109,2.481,2.477v69.473c0,1.367-1.109,2.48-2.481,2.48h-14.363c-0.859,0-1.664-0.449-2.113-1.183
							l-30.797-50.246v43.25l2.695,4.402c0.473,0.769,0.488,1.727,0.051,2.512c-0.441,0.781-1.269,1.266-2.164,1.266h-0.582v4.707
							c0,1.367-1.109,2.477-2.48,2.477H508.918z"/>
						<path style="fill:#31343C;" d="M523.297,741.891v7.188h7.184l28.207,46.031v-46.031h14.363v69.473h-14.363l-35.391-57.75
							v52.746l3.063,5.004h-3.063v7.188h-14.379v-12.191l-37.41-61.047v66.051h-14.363v-69.473h12.258h2.105h12.277l25.133,41.031
							v-48.219H523.297 M523.297,736.93h-14.379c-2.738,0-4.961,2.223-4.961,4.961v30.613l-15.941-26.016
							c-0.898-1.473-2.504-2.367-4.23-2.367h-12.277h-2.105h-12.258c-2.738,0-4.957,2.219-4.957,4.957v69.473
							c0,2.742,2.219,4.965,4.957,4.965h14.363c2.738,0,4.961-2.223,4.961-4.965v-48.453l27.488,44.848v10.793
							c0,2.738,2.223,4.957,4.961,4.957h14.379c2.738,0,4.961-2.219,4.961-4.957v-2.602c1.016-0.422,1.875-1.172,2.426-2.16
							c0.879-1.563,0.844-3.484-0.09-5.012l-2.336-3.816v-33.754l26.203,42.746c0.902,1.473,2.504,2.375,4.227,2.375h14.363
							c2.738,0,4.961-2.223,4.961-4.965v-69.473c0-2.738-2.223-4.957-4.961-4.957h-14.363c-2.734,0-4.957,2.219-4.957,4.957v28.441
							l-19.02-31.031c-0.902-1.473-2.508-2.367-4.23-2.367h-2.223v-2.23C528.258,739.152,526.035,736.93,523.297,736.93
							L523.297,736.93z"/>
					</g>
					<g>
						<path style="fill:#F4AA2A;" d="M615.625,821.031c-0.863,0-1.668-0.449-2.113-1.183l-42.574-69.473
							c-0.473-0.766-0.488-1.723-0.047-2.508c0.438-0.785,1.266-1.266,2.16-1.266h14.363c0.863,0,1.668,0.445,2.117,1.184
							l23.613,38.527v-37.234c0-1.367,1.109-2.477,2.481-2.477h14.371c1.371,0,2.48,1.109,2.48,2.477v69.473
							c0,1.367-1.109,2.48-2.48,2.48H615.625z"/>
						<path style="fill:#31343C;" d="M629.996,749.078v69.473h-14.371l-42.574-69.473h14.363l28.211,46.031v-46.031H629.996
							 M629.996,744.121h-14.371c-2.738,0-4.961,2.219-4.961,4.957v28.441l-19.02-31.031c-0.902-1.473-2.504-2.367-4.23-2.367
							h-14.363c-1.797,0-3.449,0.969-4.328,2.531c-0.879,1.57-0.84,3.488,0.102,5.02l42.57,69.469
							c0.902,1.473,2.504,2.375,4.231,2.375h14.371c2.738,0,4.961-2.223,4.961-4.965v-69.473
							C634.957,746.34,632.734,744.121,629.996,744.121L629.996,744.121z"/>
					</g>
					<g>
						<path style="fill:#F4AA2A;" d="M672.578,821.031c-0.863,0-1.664-0.449-2.113-1.183l-42.582-69.473
							c-0.473-0.766-0.488-1.723-0.051-2.508c0.441-0.785,1.27-1.266,2.164-1.266h14.375c0.859,0,1.664,0.445,2.113,1.184
							l23.613,38.523v-37.23c0-1.367,1.113-2.477,2.48-2.477h14.363c1.371,0,2.48,1.109,2.48,2.477v69.473
							c0,1.367-1.109,2.48-2.48,2.48H672.578z"/>
						<path style="fill:#31343C;" d="M686.941,749.078v69.473h-14.363l-42.582-69.473h14.375l28.207,46.023v-46.023H686.941
							 M686.941,744.121h-14.363c-2.738,0-4.961,2.219-4.961,4.957v28.434l-19.02-31.023c-0.902-1.473-2.504-2.367-4.227-2.367
							h-14.375c-1.797,0-3.449,0.969-4.332,2.531c-0.875,1.57-0.836,3.488,0.105,5.02l42.582,69.469
							c0.898,1.473,2.504,2.375,4.227,2.375h14.363c2.738,0,4.961-2.223,4.961-4.965v-69.473
							C691.902,746.34,689.68,744.121,686.941,744.121L686.941,744.121z"/>
					</g>
					<g>
						<path style="fill:#F4AA2A;" d="M729.523,821.031c-0.863,0-1.668-0.449-2.113-1.183l-42.582-69.473
							c-0.473-0.766-0.488-1.723-0.051-2.508c0.442-0.785,1.27-1.266,2.164-1.266h14.363c0.863,0,1.664,0.445,2.113,1.184
							l23.625,38.523v-37.23c0-1.367,1.113-2.477,2.48-2.477h14.363c1.367,0,2.481,1.109,2.481,2.477v69.473
							c0,1.367-1.113,2.48-2.481,2.48H729.523z"/>
						<path style="fill:#31343C;" d="M743.887,749.078v69.473h-14.363l-42.582-69.473h14.363l28.219,46.023v-46.023H743.887
							 M743.887,744.121h-14.363c-2.738,0-4.961,2.219-4.961,4.957v28.434l-19.027-31.023c-0.902-1.473-2.508-2.367-4.23-2.367
							h-14.363c-1.797,0-3.449,0.969-4.332,2.531c-0.875,1.57-0.836,3.488,0.102,5.02l42.582,69.469
							c0.902,1.473,2.504,2.375,4.23,2.375h14.363c2.738,0,4.961-2.223,4.961-4.965v-69.473
							C748.848,746.34,746.625,744.121,743.887,744.121L743.887,744.121z"/>
					</g>
					<g>
						<path style="fill:#F4AA2A;" d="M786.469,821.031c-0.863,0-1.668-0.449-2.113-1.183l-42.582-69.473
							c-0.473-0.766-0.488-1.723-0.051-2.508c0.438-0.785,1.266-1.266,2.164-1.266h14.371c0.863,0,1.668,0.445,2.117,1.184
							l23.613,38.527v-37.234c0-1.367,1.109-2.477,2.48-2.477h14.363c1.367,0,2.481,1.109,2.481,2.477v69.473
							c0,1.367-1.113,2.48-2.481,2.48H786.469z"/>
						<path style="fill:#31343C;" d="M800.832,749.078v69.473h-14.363l-42.582-69.473h14.371l28.211,46.031v-46.031H800.832
							 M800.832,744.121h-14.363c-2.738,0-4.961,2.219-4.961,4.957v28.441l-19.019-31.031c-0.902-1.473-2.504-2.367-4.231-2.367
							h-14.371c-1.797,0-3.449,0.969-4.332,2.531c-0.875,1.57-0.836,3.488,0.102,5.02l42.582,69.469
							c0.902,1.473,2.504,2.375,4.23,2.375h14.363c2.738,0,4.957-2.223,4.957-4.965v-69.473
							C805.789,746.34,803.57,744.121,800.832,744.121L800.832,744.121z"/>
					</g>
					<g>
						<path style="fill:#F4AA2A;" d="M843.414,821.031c-0.863,0-1.668-0.449-2.117-1.183l-42.582-69.473
							c-0.473-0.766-0.484-1.723-0.047-2.508c0.437-0.785,1.266-1.266,2.164-1.266h14.363c0.859,0,1.664,0.445,2.113,1.184
							l23.625,38.531v-37.238c0-1.367,1.109-2.477,2.48-2.477h14.352c1.371,0,2.481,1.109,2.481,2.477v69.473
							c0,1.367-1.109,2.48-2.481,2.48H843.414z"/>
						<path style="fill:#31343C;" d="M857.766,749.078v69.473h-14.352l-42.582-69.473h14.363l28.219,46.031v-46.031H857.766
							 M857.766,744.121h-14.352c-2.738,0-4.961,2.219-4.961,4.957v28.445l-19.031-31.035c-0.902-1.473-2.504-2.367-4.227-2.367
							h-14.363c-1.801,0-3.449,0.969-4.332,2.531c-0.879,1.57-0.84,3.488,0.102,5.02l42.582,69.469
							c0.902,1.473,2.504,2.375,4.23,2.375h14.352c2.738,0,4.961-2.223,4.961-4.965v-69.473
							C862.727,746.34,860.504,744.121,857.766,744.121L857.766,744.121z"/>
					</g>
					<g>
						<path style="fill:#F4AA2A;" d="M900.348,821.031c-0.863,0-1.668-0.449-2.113-1.183l-42.582-69.473
							c-0.473-0.766-0.488-1.723-0.051-2.508c0.441-0.785,1.27-1.266,2.164-1.266h14.383c0.863,0,1.664,0.445,2.113,1.184
							l23.606,38.516v-37.223c0-1.367,1.113-2.477,2.48-2.477h14.371c1.371,0,2.48,1.109,2.48,2.477v69.473
							c0,1.367-1.109,2.48-2.48,2.48H900.348z"/>
						<path style="fill:#31343C;" d="M914.719,749.078v69.473h-14.371l-42.582-69.473h14.383l28.199,46.023v-46.023H914.719
							 M914.719,744.121h-14.371c-2.738,0-4.961,2.219-4.961,4.957v28.426l-19.008-31.016c-0.902-1.473-2.508-2.367-4.231-2.367
							h-14.383c-1.797,0-3.449,0.969-4.332,2.531c-0.875,1.57-0.836,3.488,0.102,5.02l42.582,69.469
							c0.902,1.473,2.504,2.375,4.23,2.375h14.371c2.738,0,4.961-2.223,4.961-4.965v-69.473
							C919.68,746.34,917.457,744.121,914.719,744.121L914.719,744.121z"/>
					</g>
					<g>
						<path style="fill:#F4AA2A;" d="M957.293,821.031c-0.863,0-1.668-0.449-2.113-1.183l-42.574-69.473
							c-0.473-0.766-0.488-1.723-0.047-2.508c0.438-0.785,1.266-1.266,2.16-1.266h14.363c0.863,0,1.668,0.445,2.117,1.184
							l23.613,38.523v-37.23c0-1.367,1.109-2.477,2.481-2.477h14.363c1.367,0,2.48,1.109,2.48,2.477v69.473
							c0,1.367-1.113,2.48-2.48,2.48H957.293z"/>
						<path style="fill:#31343C;" d="M971.656,749.078v69.473h-14.363l-42.574-69.473h14.363l28.211,46.023v-46.023H971.656
							 M971.656,744.121h-14.363c-2.738,0-4.961,2.219-4.961,4.957v28.434l-19.019-31.023c-0.902-1.473-2.504-2.367-4.231-2.367
							h-14.363c-1.797,0-3.449,0.969-4.328,2.531c-0.879,1.57-0.84,3.488,0.102,5.02l42.57,69.469
							c0.902,1.473,2.504,2.375,4.231,2.375h14.363c2.738,0,4.957-2.223,4.957-4.965v-69.473
							C976.613,746.34,974.394,744.121,971.656,744.121L971.656,744.121z"/>
					</g>
					<g>
						<path style="fill:#F4AA2A;" d="M1014.238,821.031c-0.863,0-1.668-0.449-2.117-1.183l-42.582-69.473
							c-0.473-0.766-0.484-1.723-0.047-2.508c0.438-0.785,1.266-1.266,2.164-1.266h14.371c0.863,0,1.668,0.445,2.113,1.184
							l23.617,38.523v-37.23c0-1.367,1.109-2.477,2.48-2.477h14.371c1.371,0,2.48,1.109,2.48,2.477v69.473
							c0,1.367-1.109,2.48-2.48,2.48H1014.238z"/>
						<path style="fill:#31343C;" d="M1028.609,749.078v69.473h-14.371l-42.582-69.473h14.371l28.211,46.023v-46.023H1028.609
							 M1028.609,744.121h-14.371c-2.738,0-4.961,2.219-4.961,4.957v28.434l-19.02-31.023c-0.902-1.473-2.504-2.367-4.23-2.367
							h-14.371c-1.801,0-3.449,0.969-4.332,2.531c-0.879,1.57-0.84,3.488,0.102,5.02l42.582,69.469
							c0.902,1.473,2.504,2.375,4.23,2.375h14.371c2.738,0,4.961-2.223,4.961-4.965v-69.473
							C1033.57,746.34,1031.348,744.121,1028.609,744.121L1028.609,744.121z"/>
					</g>
					<g>
						<path style="fill:#F4AA2A;" d="M1071.184,821.031c-0.863,0-1.668-0.449-2.117-1.183l-42.57-69.473
							c-0.473-0.766-0.488-1.723-0.051-2.508c0.441-0.785,1.27-1.266,2.164-1.266h14.363c0.863,0,1.664,0.445,2.113,1.184
							l23.617,38.523v-37.23c0-1.367,1.109-2.477,2.48-2.477h14.359c1.371,0,2.48,1.109,2.48,2.477v69.473
							c0,1.367-1.109,2.48-2.48,2.48H1071.184z"/>
						<path style="fill:#31343C;" d="M1085.543,749.078v69.473h-14.359l-42.574-69.473h14.363l28.211,46.023v-46.023H1085.543
							 M1085.543,744.121h-14.359c-2.738,0-4.961,2.219-4.961,4.957v28.434l-19.02-31.023c-0.902-1.473-2.508-2.367-4.23-2.367
							h-14.363c-1.797,0-3.449,0.969-4.332,2.531c-0.875,1.57-0.836,3.488,0.102,5.02l42.574,69.469
							c0.902,1.473,2.504,2.375,4.23,2.375h14.359c2.738,0,4.961-2.223,4.961-4.965v-69.473
							C1090.504,746.34,1088.281,744.121,1085.543,744.121L1085.543,744.121z"/>
					</g>
					<g>
						<path style="fill:#F4AA2A;" d="M1128.125,821.031c-0.859,0-1.664-0.449-2.113-1.183l-42.582-69.473
							c-0.473-0.766-0.488-1.723-0.047-2.508c0.438-0.785,1.266-1.266,2.16-1.266h14.375c0.863,0,1.664,0.445,2.113,1.184
							l23.613,38.523v-37.23c0-1.367,1.113-2.477,2.48-2.477h14.375c1.367,0,2.48,1.109,2.48,2.477v69.473
							c0,1.367-1.113,2.48-2.48,2.48H1128.125z"/>
						<path style="fill:#31343C;" d="M1142.5,749.078v69.473h-14.375l-42.582-69.473h14.375l28.207,46.023v-46.023H1142.5
							 M1142.5,744.121h-14.375c-2.738,0-4.957,2.219-4.957,4.957v28.434l-19.023-31.023c-0.898-1.473-2.504-2.367-4.227-2.367
							h-14.375c-1.797,0-3.449,0.969-4.328,2.531c-0.879,1.57-0.84,3.488,0.102,5.02l42.582,69.469
							c0.898,1.473,2.504,2.375,4.227,2.375h14.375c2.738,0,4.957-2.223,4.957-4.965v-69.473
							C1147.457,746.34,1145.238,744.121,1142.5,744.121L1142.5,744.121z"/>
					</g>
					<g>
						<path style="fill:#F4AA2A;" d="M1185.07,821.031c-0.863,0-1.664-0.449-2.113-1.183l-42.574-69.473
							c-0.473-0.766-0.484-1.723-0.047-2.508c0.438-0.785,1.266-1.266,2.164-1.266h14.363c0.859,0,1.664,0.445,2.113,1.184
							l23.613,38.523v-37.23c0-1.367,1.113-2.477,2.48-2.477h14.363c1.371,0,2.48,1.109,2.48,2.477v69.473
							c0,1.367-1.109,2.48-2.48,2.48H1185.07z"/>
						<path style="fill:#31343C;" d="M1199.434,749.078v69.473h-14.363l-42.57-69.473h14.363l28.207,46.023v-46.023H1199.434
							 M1199.434,744.121h-14.363c-2.738,0-4.961,2.219-4.961,4.957v28.434l-19.02-31.023c-0.902-1.473-2.504-2.367-4.227-2.367
							H1142.5c-1.801,0-3.449,0.969-4.332,2.531c-0.879,1.57-0.84,3.488,0.102,5.02l42.574,69.469
							c0.898,1.473,2.504,2.375,4.227,2.375h14.363c2.738,0,4.961-2.223,4.961-4.965v-69.473
							C1204.395,746.34,1202.172,744.121,1199.434,744.121L1199.434,744.121z"/>
					</g>
					<g>
						<path style="fill:#F4AA2A;" d="M1242.016,821.031c-0.863,0-1.668-0.449-2.113-1.183l-42.582-69.473
							c-0.473-0.766-0.488-1.723-0.051-2.508c0.441-0.785,1.27-1.266,2.164-1.266h14.371c0.863,0,1.668,0.445,2.117,1.184
							l23.613,38.527v-37.234c0-1.367,1.113-2.477,2.48-2.477h14.363c1.367,0,2.48,1.109,2.48,2.477v69.473
							c0,1.367-1.113,2.48-2.48,2.48H1242.016z"/>
						<path style="fill:#31343C;" d="M1256.379,749.078v69.473h-14.363l-42.582-69.473h14.371l28.211,46.031v-46.031H1256.379
							 M1256.379,744.121h-14.363c-2.738,0-4.961,2.219-4.961,4.957v28.441l-19.02-31.031c-0.902-1.473-2.504-2.367-4.23-2.367
							h-14.371c-1.797,0-3.449,0.969-4.332,2.531c-0.875,1.57-0.836,3.488,0.102,5.02l42.582,69.469
							c0.902,1.473,2.504,2.375,4.23,2.375h14.363c2.738,0,4.961-2.223,4.961-4.965v-69.473
							C1261.34,746.34,1259.117,744.121,1256.379,744.121L1256.379,744.121z"/>
					</g>
					<g>
						<path style="fill:#F4AA2A;" d="M1298.961,821.031c-0.863,0-1.668-0.449-2.113-1.183l-42.582-69.473
							c-0.473-0.766-0.488-1.723-0.051-2.508c0.438-0.785,1.266-1.266,2.164-1.266h14.371c0.863,0,1.668,0.445,2.117,1.184
							l23.613,38.523v-37.23c0-1.367,1.109-2.477,2.48-2.477h14.371c1.371,0,2.48,1.109,2.48,2.477v69.473
							c0,1.367-1.109,2.48-2.48,2.48H1298.961z"/>
						<path style="fill:#31343C;" d="M1313.332,749.078v69.473h-14.371l-42.582-69.473h14.371l28.211,46.023v-46.023H1313.332
							 M1313.332,744.121h-14.371c-2.738,0-4.961,2.219-4.961,4.957v28.434l-19.02-31.023c-0.902-1.473-2.504-2.367-4.23-2.367
							h-14.371c-1.797,0-3.449,0.969-4.332,2.531c-0.875,1.57-0.836,3.488,0.102,5.02l42.582,69.469
							c0.902,1.473,2.504,2.375,4.23,2.375h14.371c2.738,0,4.961-2.223,4.961-4.965v-69.473
							C1318.293,746.34,1316.07,744.121,1313.332,744.121L1313.332,744.121z"/>
					</g>
					<g>
						<path style="fill:#F4AA2A;" d="M1453.543,821.031c-0.547,0-1.078-0.18-1.512-0.512l-79.273-60.891v58.922
							c0,1.367-1.109,2.48-2.48,2.48h-14.383c-0.863,0-1.664-0.449-2.113-1.183l-42.563-69.473
							c-0.473-0.766-0.488-1.723-0.051-2.508c0.441-0.785,1.27-1.266,2.164-1.266h14.355c0.859,0,1.664,0.445,2.113,1.184
							l23.613,38.527v-37.234c0-1.367,1.113-2.477,2.48-2.477h28.734c0.566,0,1.113,0.188,1.555,0.543l86.617,69.473
							c0.816,0.656,1.137,1.762,0.785,2.758c-0.348,0.992-1.289,1.656-2.34,1.656H1453.543z"/>
						<path style="fill:#31343C;" d="M1384.629,749.078l86.617,69.473h-17.703l-83.266-63.957v63.957h-14.383l-42.563-69.473h14.355
							l28.207,46.031v-46.031h7.184h7.199H1384.629 M1384.629,744.121h-14.352h-7.199h-7.184c-2.738,0-4.961,2.219-4.961,4.957
							v28.441l-19.02-31.031c-0.902-1.473-2.504-2.367-4.227-2.367h-14.355c-1.797,0-3.449,0.969-4.324,2.531
							c-0.883,1.57-0.844,3.488,0.098,5.02l42.563,69.469c0.898,1.473,2.504,2.375,4.227,2.375h14.383
							c2.738,0,4.961-2.223,4.961-4.965V764.66l75.281,57.828c0.867,0.668,1.93,1.027,3.023,1.027h17.703
							c2.105,0,3.984-1.336,4.684-3.316c0.695-1.988,0.063-4.203-1.578-5.523l-86.617-69.465
							C1386.852,744.5,1385.762,744.121,1384.629,744.121L1384.629,744.121z"/>
					</g>
				</g>
				<g>
					<g>
						<path style="fill:#F4AA2A;" d="M351.063,828.215c-1.371,0-2.48-1.109-2.48-2.477v-14.375c0-1.367,1.109-2.48,2.48-2.48h8.082
							l76.043-60.992v-6c0-1.371,1.109-2.48,2.48-2.48h942.656c0.617,0,1.207,0.227,1.664,0.641l15.844,14.375
							c0.762,0.688,1.02,1.773,0.648,2.727c-0.367,0.961-1.289,1.59-2.313,1.59H450.699l-65.285,50.141h1085.832
							c1.371,0,2.48,1.113,2.48,2.48v14.375c0,1.367-1.109,2.477-2.48,2.477H351.063z"/>
						<path style="fill:#31343C;" d="M1380.324,741.891l15.844,14.371H449.855l-71.746,55.102h1093.137v14.375H351.063v-14.375
							h8.953l77.652-62.285v-7.188H1380.324 M1380.324,736.93H437.668c-2.738,0-4.961,2.223-4.961,4.961v4.809l-74.434,59.707
							h-7.211c-2.738,0-4.961,2.219-4.961,4.957v14.375c0,2.738,2.223,4.957,4.961,4.957h1120.184c2.738,0,4.961-2.219,4.961-4.957
							v-14.375c0-2.738-2.223-4.957-4.961-4.957H392.719l58.824-45.183h944.625c2.051,0,3.887-1.258,4.629-3.172
							c0.738-1.918,0.223-4.09-1.297-5.465l-15.844-14.371C1382.746,737.387,1381.555,736.93,1380.324,736.93L1380.324,736.93z"/>
					</g>
					<g>
						<g>
							<path style="fill:#C46D1F;" d="M351.063,832.973c-1.371,0-2.48-1.113-2.48-2.481v-4.754c0-1.371,1.109-2.48,2.48-2.48
								h1120.184c1.371,0,2.48,1.109,2.48,2.48v4.754c0,1.367-1.109,2.481-2.48,2.481H351.063z"/>
							<path style="fill:#31343C;" d="M1471.246,825.738v4.754H351.063v-4.754H1471.246 M1471.246,820.777H351.063
								c-2.738,0-4.961,2.223-4.961,4.961v4.754c0,2.738,2.223,4.961,4.961,4.961h1120.184c2.738,0,4.961-2.223,4.961-4.961v-4.754
								C1476.207,823,1473.984,820.777,1471.246,820.777L1471.246,820.777z"/>
						</g>
					</g>
				</g>
			</g>
			<g>
				<g>
					<g>
						<path style="fill:#F4AA2A;" d="M760.004,1752.387c-0.449,0-0.902-0.121-1.297-0.363l-69.484-42.582
							c-0.738-0.449-1.184-1.254-1.184-2.113v-14.363c0-1.371,1.109-2.48,2.48-2.48h69.484c1.367,0,2.48,1.109,2.48,2.48v14.363
							c0,1.367-1.113,2.48-2.48,2.48h-37.238l38.535,23.617c0.734,0.449,1.184,1.254,1.184,2.113v14.371
							c0,0.895-0.484,1.723-1.27,2.16C760.836,1752.285,760.422,1752.387,760.004,1752.387z"/>
						<path style="fill:#31343C;" d="M760.004,1692.965v14.363h-46.031l46.031,28.211v14.371l-69.484-42.582v-14.363H760.004
							 M760.004,1688.004h-69.484c-2.738,0-4.961,2.223-4.961,4.961v14.363c0,1.723,0.894,3.328,2.367,4.227l69.484,42.582
							c0.797,0.488,1.691,0.73,2.594,0.73c0.832,0,1.672-0.207,2.426-0.629c1.563-0.879,2.531-2.531,2.531-4.328v-14.371
							c0-1.723-0.894-3.324-2.367-4.227l-31.027-19.027h28.438c2.738,0,4.957-2.219,4.957-4.957v-14.363
							C764.961,1690.227,762.742,1688.004,760.004,1688.004L760.004,1688.004z"/>
					</g>
					<g>
						<path style="fill:#F4AA2A;" d="M760.004,1695.445c-0.449,0-0.902-0.125-1.297-0.367l-69.484-42.582
							c-0.738-0.449-1.184-1.25-1.184-2.113v-14.363c0-1.371,1.109-2.48,2.48-2.48h69.484c1.367,0,2.48,1.109,2.48,2.48v14.363
							c0,1.367-1.113,2.48-2.48,2.48h-37.242l38.539,23.617c0.734,0.449,1.184,1.254,1.184,2.117v14.367
							c0,0.895-0.484,1.723-1.27,2.164C760.836,1695.34,760.422,1695.445,760.004,1695.445z"/>
						<path style="fill:#31343C;" d="M760.004,1636.02v14.363h-46.043l46.043,28.215v14.367l-69.484-42.582v-14.363H760.004
							 M760.004,1631.059h-69.484c-2.738,0-4.961,2.223-4.961,4.961v14.363c0,1.723,0.894,3.328,2.367,4.227l69.484,42.582
							c0.797,0.488,1.691,0.73,2.594,0.73c0.832,0,1.672-0.207,2.426-0.625c1.563-0.883,2.531-2.535,2.531-4.332v-14.367
							c0-1.727-0.894-3.328-2.367-4.234l-31.039-19.02h28.449c2.738,0,4.957-2.223,4.957-4.961v-14.363
							C764.961,1633.281,762.742,1631.059,760.004,1631.059L760.004,1631.059z"/>
					</g>
					<g>
						<path style="fill:#F4AA2A;" d="M760.004,1638.5c-0.449,0-0.902-0.121-1.297-0.367l-69.484-42.582
							c-0.738-0.445-1.184-1.25-1.184-2.113v-14.363c0-1.367,1.109-2.48,2.48-2.48h69.484c1.367,0,2.48,1.113,2.48,2.48v14.363
							c0,1.367-1.113,2.48-2.48,2.48h-37.246l38.543,23.625c0.734,0.449,1.184,1.25,1.184,2.113v14.363
							c0,0.895-0.484,1.723-1.27,2.164C760.836,1638.398,760.422,1638.5,760.004,1638.5z"/>
						<path style="fill:#31343C;" d="M760.004,1579.074v14.363h-46.043l46.043,28.219v14.363l-69.484-42.582v-14.363H760.004
							 M760.004,1574.113h-69.484c-2.738,0-4.961,2.223-4.961,4.961v14.363c0,1.727,0.894,3.328,2.367,4.23l69.484,42.582
							c0.797,0.484,1.691,0.73,2.594,0.73c0.832,0,1.672-0.211,2.426-0.629c1.563-0.883,2.531-2.535,2.531-4.332v-14.363
							c0-1.723-0.894-3.328-2.367-4.23l-31.039-19.027h28.449c2.738,0,4.957-2.223,4.957-4.961v-14.363
							C764.961,1576.336,762.742,1574.113,760.004,1574.113L760.004,1574.113z"/>
					</g>
					<g>
						<path style="fill:#F4AA2A;" d="M760.004,1581.555c-0.449,0-0.902-0.121-1.297-0.367l-69.484-42.582
							c-0.738-0.445-1.184-1.25-1.184-2.113v-14.355c0-1.371,1.109-2.48,2.48-2.48h69.484c1.367,0,2.48,1.109,2.48,2.48v14.355
							c0,1.371-1.113,2.48-2.48,2.48h-37.234l38.531,23.613c0.734,0.449,1.184,1.254,1.184,2.117v14.371
							c0,0.898-0.484,1.727-1.27,2.164C760.836,1581.453,760.422,1581.555,760.004,1581.555z"/>
						<path style="fill:#31343C;" d="M760.004,1522.137v14.355h-46.031l46.031,28.211v14.371l-69.484-42.582v-14.355H760.004
							 M760.004,1517.172h-69.484c-2.738,0-4.961,2.219-4.961,4.965v14.355c0,1.727,0.894,3.328,2.367,4.23l69.484,42.582
							c0.797,0.484,1.691,0.73,2.594,0.73c0.832,0,1.672-0.211,2.426-0.629c1.563-0.883,2.531-2.535,2.531-4.332v-14.371
							c0-1.727-0.894-3.328-2.367-4.23l-31.027-19.02h28.438c2.738,0,4.957-2.223,4.957-4.961v-14.355
							C764.961,1519.391,762.742,1517.172,760.004,1517.172L760.004,1517.172z"/>
					</g>
					<g>
						<path style="fill:#F4AA2A;" d="M760.004,1524.613c-0.449,0-0.902-0.121-1.297-0.363l-69.484-42.586
							c-0.738-0.449-1.184-1.254-1.184-2.117v-14.355c0-1.371,1.109-2.48,2.48-2.48h69.484c1.367,0,2.48,1.109,2.48,2.48v14.355
							c0,1.371-1.113,2.48-2.48,2.48h-37.242l38.539,23.617c0.734,0.445,1.184,1.25,1.184,2.113v14.379
							c0,0.895-0.484,1.723-1.27,2.16C760.836,1524.512,760.422,1524.613,760.004,1524.613z"/>
						<path style="fill:#31343C;" d="M760.004,1465.191v14.355h-46.043l46.043,28.211v14.379l-69.484-42.59v-14.355H760.004
							 M760.004,1460.227h-69.484c-2.738,0-4.961,2.219-4.961,4.965v14.355c0,1.727,0.894,3.328,2.367,4.23l69.484,42.59
							c0.797,0.484,1.691,0.73,2.594,0.73c0.832,0,1.672-0.211,2.426-0.633c1.563-0.875,2.531-2.531,2.531-4.328v-14.379
							c0-1.727-0.894-3.328-2.367-4.23l-31.035-19.02h28.445c2.738,0,4.957-2.223,4.957-4.961v-14.355
							C764.961,1462.445,762.742,1460.227,760.004,1460.227L760.004,1460.227z"/>
					</g>
					<g>
						<path style="fill:#F4AA2A;" d="M760.004,1467.672c-0.449,0-0.902-0.125-1.297-0.367l-69.484-42.582
							c-0.738-0.449-1.184-1.25-1.184-2.113v-14.367c0-1.371,1.109-2.48,2.48-2.48h69.484c1.367,0,2.48,1.109,2.48,2.48v14.367
							c0,1.367-1.113,2.48-2.48,2.48h-37.234l38.531,23.609c0.734,0.449,1.184,1.25,1.184,2.113v14.379
							c0,0.895-0.484,1.723-1.27,2.16C760.836,1467.566,760.422,1467.672,760.004,1467.672z"/>
						<path style="fill:#31343C;" d="M760.004,1408.242v14.367h-46.031l46.031,28.203v14.379l-69.484-42.582v-14.367H760.004
							 M760.004,1403.281h-69.484c-2.738,0-4.961,2.223-4.961,4.961v14.367c0,1.723,0.894,3.328,2.367,4.234l69.484,42.582
							c0.797,0.48,1.691,0.73,2.594,0.73c0.832,0,1.672-0.215,2.426-0.633c1.563-0.879,2.531-2.535,2.531-4.332v-14.379
							c0-1.723-0.894-3.328-2.367-4.23l-31.024-19.008h28.434c2.738,0,4.957-2.223,4.957-4.965v-14.367
							C764.961,1405.504,762.742,1403.281,760.004,1403.281L760.004,1403.281z"/>
					</g>
					<g>
						<path style="fill:#F4AA2A;" d="M760.004,1410.719c-0.449,0-0.902-0.121-1.297-0.363l-69.484-42.574
							c-0.738-0.445-1.184-1.25-1.184-2.113v-14.371c0-1.371,1.109-2.48,2.48-2.48h69.484c1.367,0,2.48,1.109,2.48,2.48v14.371
							c0,1.371-1.113,2.48-2.48,2.48h-37.234l38.531,23.609c0.734,0.449,1.184,1.254,1.184,2.113v14.371
							c0,0.895-0.484,1.723-1.27,2.16C760.836,1410.617,760.422,1410.719,760.004,1410.719z"/>
						<path style="fill:#31343C;" d="M760.004,1351.297v14.371h-46.031l46.031,28.203v14.371l-69.484-42.574v-14.371H760.004
							 M760.004,1346.336h-69.484c-2.738,0-4.961,2.223-4.961,4.961v14.371c0,1.727,0.894,3.328,2.367,4.23l69.484,42.57
							c0.797,0.488,1.695,0.73,2.594,0.73c0.832,0,1.672-0.207,2.426-0.633c1.563-0.875,2.531-2.527,2.531-4.324v-14.371
							c0-1.727-0.894-3.324-2.367-4.23l-31.024-19.012h28.434c2.738,0,4.957-2.223,4.957-4.961v-14.371
							C764.961,1348.559,762.742,1346.336,760.004,1346.336L760.004,1346.336z"/>
					</g>
					<g>
						<path style="fill:#F4AA2A;" d="M760.004,1353.777c-0.449,0-0.902-0.125-1.297-0.367l-69.484-42.57
							c-0.738-0.449-1.184-1.254-1.184-2.117v-14.371c0-1.371,1.109-2.48,2.48-2.48h69.484c1.367,0,2.48,1.109,2.48,2.48v14.371
							c0,1.371-1.113,2.48-2.48,2.48h-37.234l38.531,23.609c0.734,0.449,1.184,1.254,1.184,2.117v14.367
							c0,0.895-0.484,1.723-1.27,2.164C760.836,1353.672,760.422,1353.777,760.004,1353.777z"/>
						<path style="fill:#31343C;" d="M760.004,1294.352v14.371h-46.031l46.031,28.207v14.367l-69.484-42.574v-14.371H760.004
							 M760.004,1289.391h-69.484c-2.738,0-4.961,2.223-4.961,4.961v14.371c0,1.726,0.894,3.328,2.367,4.23l69.484,42.57
							c0.797,0.488,1.695,0.73,2.594,0.73c0.832,0,1.672-0.207,2.426-0.633c1.563-0.875,2.531-2.527,2.531-4.324v-14.367
							c0-1.73-0.894-3.328-2.367-4.234l-31.024-19.012h28.434c2.738,0,4.957-2.223,4.957-4.961v-14.371
							C764.961,1291.613,762.742,1289.391,760.004,1289.391L760.004,1289.391z"/>
					</g>
					<g>
						<path style="fill:#F4AA2A;" d="M760.004,1296.832c-0.449,0-0.902-0.121-1.297-0.367l-69.484-42.57
							c-0.738-0.449-1.184-1.254-1.184-2.117v-14.367c0-1.367,1.109-2.477,2.48-2.477h69.484c1.367,0,2.48,1.109,2.48,2.477v14.367
							c0,1.371-1.113,2.48-2.48,2.48h-37.234l38.531,23.617c0.734,0.449,1.184,1.25,1.184,2.113v14.363
							c0,0.895-0.484,1.723-1.27,2.164C760.836,1296.73,760.422,1296.832,760.004,1296.832z"/>
						<path style="fill:#31343C;" d="M760.004,1237.41v14.367h-46.031l46.031,28.211v14.363l-69.484-42.574v-14.367H760.004
							 M760.004,1232.445h-69.484c-2.738,0-4.961,2.223-4.961,4.965v14.367c0,1.727,0.894,3.328,2.367,4.23l69.484,42.574
							c0.797,0.484,1.695,0.73,2.594,0.73c0.832,0,1.672-0.211,2.426-0.633c1.563-0.879,2.531-2.531,2.531-4.328v-14.363
							c0-1.723-0.894-3.328-2.367-4.23l-31.027-19.02h28.438c2.738,0,4.957-2.223,4.957-4.961v-14.367
							C764.961,1234.668,762.742,1232.445,760.004,1232.445L760.004,1232.445z"/>
					</g>
					<g>
						<path style="fill:#F4AA2A;" d="M760.004,1239.891c-0.449,0-0.902-0.121-1.297-0.363l-69.484-42.578
							c-0.738-0.449-1.184-1.254-1.184-2.113v-14.375c0-1.367,1.109-2.48,2.48-2.48h69.484c1.367,0,2.48,1.113,2.48,2.48v14.375
							c0,1.367-1.113,2.48-2.48,2.48h-37.234l38.531,23.613c0.734,0.449,1.184,1.25,1.184,2.113v14.367
							c0,0.898-0.484,1.726-1.27,2.164C760.836,1239.789,760.422,1239.891,760.004,1239.891z"/>
						<path style="fill:#31343C;" d="M760.004,1180.461v14.375h-46.031l46.031,28.207v14.367l-69.484-42.574v-14.375H760.004
							 M760.004,1175.504h-69.484c-2.738,0-4.961,2.219-4.961,4.957v14.375c0,1.723,0.894,3.328,2.367,4.227l69.484,42.582
							c0.797,0.484,1.691,0.73,2.594,0.73c0.836,0,1.672-0.215,2.426-0.633c1.563-0.875,2.531-2.531,2.531-4.332v-14.367
							c0-1.723-0.894-3.328-2.367-4.227l-31.027-19.023h28.438c2.738,0,4.957-2.219,4.957-4.957v-14.375
							C764.961,1177.723,762.742,1175.504,760.004,1175.504L760.004,1175.504z"/>
					</g>
					<g>
						<path style="fill:#F4AA2A;" d="M760.004,1182.941c-0.449,0-0.902-0.121-1.297-0.363l-69.484-42.574
							c-0.738-0.449-1.184-1.25-1.184-2.113v-14.363c0-1.371,1.109-2.48,2.48-2.48h69.484c1.367,0,2.48,1.109,2.48,2.48v14.363
							c0,1.367-1.113,2.48-2.48,2.48h-37.242l38.539,23.613c0.734,0.449,1.184,1.254,1.184,2.113v14.363
							c0,0.898-0.484,1.727-1.27,2.164C760.836,1182.84,760.422,1182.941,760.004,1182.941z"/>
						<path style="fill:#31343C;" d="M760.004,1123.527v14.363h-46.043l46.043,28.207v14.363l-69.484-42.57v-14.363H760.004
							 M760.004,1118.566h-69.484c-2.738,0-4.961,2.223-4.961,4.961v14.363c0,1.723,0.894,3.328,2.367,4.227l69.484,42.574
							c0.797,0.488,1.695,0.73,2.594,0.73c0.832,0,1.672-0.211,2.426-0.633c1.563-0.879,2.531-2.535,2.531-4.328v-14.363
							c0-1.723-0.894-3.324-2.367-4.227l-31.035-19.019h28.445c2.738,0,4.957-2.223,4.957-4.961v-14.363
							C764.961,1120.789,762.742,1118.566,760.004,1118.566L760.004,1118.566z"/>
					</g>
					<g>
						<path style="fill:#F4AA2A;" d="M760.004,1126.008c-0.449,0-0.902-0.121-1.297-0.367l-69.484-42.582
							c-0.738-0.445-1.184-1.25-1.184-2.113v-14.371c0-1.371,1.109-2.48,2.48-2.48h69.484c1.367,0,2.48,1.109,2.48,2.48v14.371
							c0,1.367-1.113,2.48-2.48,2.48h-37.234l38.531,23.613c0.734,0.449,1.184,1.254,1.184,2.117v14.371
							c0,0.895-0.484,1.723-1.27,2.164C760.836,1125.906,760.422,1126.008,760.004,1126.008z"/>
						<path style="fill:#31343C;" d="M760.004,1066.574v14.371h-46.031l46.031,28.211v14.371l-69.484-42.582v-14.371H760.004
							 M760.004,1061.613h-69.484c-2.738,0-4.961,2.223-4.961,4.961v14.371c0,1.727,0.894,3.328,2.367,4.23l69.484,42.582
							c0.797,0.484,1.691,0.73,2.594,0.73c0.832,0,1.672-0.211,2.426-0.629c1.563-0.883,2.531-2.535,2.531-4.332v-14.371
							c0-1.727-0.894-3.328-2.367-4.23l-31.027-19.02h28.438c2.738,0,4.957-2.223,4.957-4.961v-14.371
							C764.961,1063.836,762.742,1061.613,760.004,1061.613L760.004,1061.613z"/>
					</g>
					<g>
						<path style="fill:#F4AA2A;" d="M760.004,1069.051c-0.449,0-0.902-0.121-1.297-0.363l-69.484-42.574
							c-0.738-0.445-1.184-1.25-1.184-2.113v-14.371c0-1.371,1.109-2.481,2.48-2.481h69.484c1.367,0,2.48,1.109,2.48,2.481V1024
							c0,1.371-1.113,2.48-2.48,2.48h-37.242l38.539,23.613c0.734,0.449,1.184,1.254,1.184,2.117v14.363
							c0,0.895-0.484,1.723-1.27,2.16C760.836,1068.949,760.422,1069.051,760.004,1069.051z"/>
						<path style="fill:#31343C;" d="M760.004,1009.629V1024h-46.043l46.043,28.211v14.363L690.519,1024v-14.371H760.004
							 M760.004,1004.668h-69.484c-2.738,0-4.961,2.223-4.961,4.961V1024c0,1.727,0.894,3.328,2.367,4.23l69.484,42.57
							c0.797,0.488,1.695,0.73,2.594,0.73c0.832,0,1.672-0.207,2.426-0.633c1.563-0.875,2.531-2.527,2.531-4.324v-14.363
							c0-1.727-0.894-3.328-2.367-4.23l-31.035-19.02h28.445c2.738,0,4.957-2.223,4.957-4.961v-14.371
							C764.961,1006.891,762.742,1004.668,760.004,1004.668L760.004,1004.668z"/>
					</g>
					<g>
						<path style="fill:#F4AA2A;" d="M760.004,1012.109c-0.449,0-0.898-0.125-1.297-0.367l-69.484-42.563
							c-0.738-0.449-1.184-1.25-1.184-2.113v-14.375c0-1.367,1.109-2.477,2.48-2.477h69.484c1.367,0,2.48,1.109,2.48,2.477v14.375
							c0,1.367-1.113,2.48-2.48,2.48h-37.242l38.539,23.609c0.734,0.449,1.184,1.25,1.184,2.113v14.359
							c0,0.894-0.484,1.723-1.27,2.164C760.836,1012.004,760.422,1012.109,760.004,1012.109z"/>
						<path style="fill:#31343C;" d="M760.004,952.691v14.375h-46.043l46.043,28.203v14.359l-69.484-42.563v-14.375H760.004
							 M760.004,947.734h-69.484c-2.738,0-4.961,2.219-4.961,4.957v14.375c0,1.723,0.894,3.332,2.367,4.227l69.484,42.563
							c0.797,0.488,1.695,0.73,2.594,0.73c0.836,0,1.672-0.207,2.426-0.633c1.563-0.875,2.531-2.531,2.531-4.324v-14.359
							c0-1.73-0.894-3.328-2.367-4.234l-31.035-19.008h28.445c2.738,0,4.957-2.223,4.957-4.961v-14.375
							C764.961,949.953,762.742,947.734,760.004,947.734L760.004,947.734z"/>
					</g>
					<g>
						<path style="fill:#F4AA2A;" d="M760.004,955.172c-0.449,0-0.902-0.121-1.297-0.363l-69.484-42.574
							c-0.738-0.445-1.184-1.25-1.184-2.113v-14.379c0-1.367,1.109-2.48,2.48-2.48h69.484c1.367,0,2.48,1.113,2.48,2.48v14.379
							c0,1.367-1.113,2.481-2.48,2.481h-37.234l38.531,23.613c0.734,0.449,1.184,1.254,1.184,2.117v14.359
							c0,0.898-0.484,1.727-1.27,2.164C760.836,955.07,760.422,955.172,760.004,955.172z"/>
						<path style="fill:#31343C;" d="M760.004,895.742v14.379h-46.031l46.031,28.211v14.359l-69.484-42.57v-14.379H760.004
							 M760.004,890.777h-69.484c-2.738,0-4.961,2.223-4.961,4.965v14.379c0,1.727,0.894,3.328,2.367,4.231l69.484,42.57
							c0.797,0.488,1.695,0.73,2.594,0.73c0.832,0,1.672-0.211,2.426-0.633c1.563-0.879,2.531-2.527,2.531-4.328v-14.359
							c0-1.726-0.894-3.328-2.367-4.23l-31.027-19.02h28.438c2.738,0,4.957-2.223,4.957-4.961v-14.379
							C764.961,893,762.742,890.777,760.004,890.777L760.004,890.777z"/>
					</g>
					<g>
						<path style="fill:#F4AA2A;" d="M760.004,898.223c-0.449,0-0.902-0.121-1.297-0.363l-69.484-42.578
							c-0.738-0.449-1.184-1.254-1.184-2.113v-14.363c0-1.371,1.109-2.48,2.48-2.48h69.484c1.367,0,2.48,1.109,2.48,2.48v14.363
							c0,1.367-1.113,2.476-2.48,2.476h-37.246l38.543,23.625c0.734,0.449,1.184,1.254,1.184,2.117v14.355
							c0,0.898-0.484,1.727-1.27,2.164C760.836,898.121,760.422,898.223,760.004,898.223z"/>
						<path style="fill:#31343C;" d="M760.004,838.805v14.363h-46.043l46.043,28.219v14.355l-69.484-42.574v-14.363H760.004
							 M760.004,833.844h-69.484c-2.738,0-4.961,2.223-4.961,4.961v14.363c0,1.723,0.894,3.328,2.367,4.226l69.484,42.582
							c0.797,0.484,1.691,0.73,2.594,0.73c0.836,0,1.672-0.215,2.426-0.633c1.563-0.875,2.531-2.531,2.531-4.332v-14.355
							c0-1.727-0.894-3.328-2.367-4.231l-31.039-19.031h28.449c2.738,0,4.957-2.219,4.957-4.957v-14.363
							C764.961,836.066,762.742,833.844,760.004,833.844L760.004,833.844z"/>
					</g>
				</g>
				<g>
					<g>
						<path style="fill:#F4AA2A;" d="M683.336,1788.477c-1.367,0-2.48-1.113-2.48-2.48V509.16c0-1.371,1.113-2.48,2.48-2.48h14.371
							c1.371,0,2.481,1.109,2.481,2.48v1276.836c0,1.367-1.109,2.48-2.481,2.48H683.336z"/>
						<path style="fill:#31343C;" d="M697.707,509.16v1276.836h-14.371V509.16H697.707 M697.707,504.199h-14.371
							c-2.738,0-4.961,2.223-4.961,4.961v1276.836c0,2.742,2.223,4.965,4.961,4.965h14.371c2.738,0,4.961-2.223,4.961-4.965V509.16
							C702.668,506.422,700.445,504.199,697.707,504.199L697.707,504.199z"/>
					</g>
					<g>
						<path style="fill:#F4AA2A;" d="M752.813,1788.477c-1.371,0-2.481-1.113-2.481-2.48V601.387c0-1.367,1.109-2.477,2.481-2.477
							h14.363c1.367,0,2.481,1.109,2.481,2.477v1184.609c0,1.367-1.113,2.48-2.481,2.48H752.813z"/>
						<path style="fill:#31343C;" d="M767.176,601.387v1184.609h-14.363V601.387H767.176 M767.176,596.43h-14.363
							c-2.738,0-4.961,2.219-4.961,4.957v1184.609c0,2.742,2.223,4.965,4.961,4.965h14.363c2.738,0,4.957-2.223,4.957-4.965V601.387
							C772.133,598.648,769.914,596.43,767.176,596.43L767.176,596.43z"/>
					</g>
					<g>
						<path style="fill:#C46D1F;" d="M678.582,1788.477c-1.371,0-2.48-1.113-2.48-2.48V487.699c0-1.371,1.109-2.48,2.48-2.48h4.754
							c1.371,0,2.481,1.109,2.481,2.48v1298.297c0,1.367-1.109,2.48-2.481,2.48H678.582z"/>
						<path style="fill:#31343C;" d="M683.336,487.699v1298.297h-4.754V487.699H683.336 M683.336,482.734h-4.754
							c-2.738,0-4.961,2.223-4.961,4.965v1298.297c0,2.742,2.223,4.965,4.961,4.965h4.754c2.738,0,4.961-2.223,4.961-4.965V487.699
							C688.297,484.957,686.074,482.734,683.336,482.734L683.336,482.734z"/>
					</g>
				</g>
				<g>
					<g>
						<g>
							<path style="fill:#F4AA2A;" d="M767.176,635.563c-0.762,0-1.496-0.352-1.981-0.981l-83.836-110.398
								c-0.328-0.434-0.504-0.957-0.504-1.5v-34.984c0-1.074,0.688-2.023,1.707-2.359c0.254-0.082,0.516-0.121,0.773-0.121
								c0.773,0,1.52,0.359,1.996,1.008l83.84,113.691c0.313,0.422,0.484,0.938,0.484,1.469v31.695c0,1.066-0.68,2.012-1.692,2.352
								C767.707,635.523,767.438,635.563,767.176,635.563z"/>
							<path style="fill:#31343C;" d="M683.336,487.699l83.84,113.688v31.695l-83.84-110.398V487.699 M683.336,482.734
								c-0.516,0-1.043,0.082-1.551,0.254c-2.035,0.668-3.41,2.566-3.41,4.711v34.984c0,1.082,0.352,2.141,1.012,3.004
								l83.836,110.394c0.957,1.262,2.434,1.965,3.953,1.965c0.523,0,1.063-0.09,1.582-0.266c2.024-0.676,3.375-2.57,3.375-4.699
								v-31.695c0-1.063-0.336-2.094-0.965-2.941L687.332,484.75C686.375,483.461,684.879,482.734,683.336,482.734L683.336,482.734z
								"/>
						</g>
					</g>
				</g>
			</g>
			<g>
				<g>
					<path style="fill:#F4AA2A;" d="M644.066,846.652c-1.367,0-2.481-1.109-2.481-2.48V686.551c0-1.367,1.113-2.48,2.481-2.48h85.73
						c0.629,0,1.238,0.242,1.695,0.668l71.891,67.391c0.504,0.473,0.785,1.125,0.785,1.813v90.23c0,1.371-1.109,2.48-2.481,2.48
						H644.066z"/>
					<path style="fill:#31343C;" d="M729.797,686.551l71.891,67.391v90.23H644.066V686.551H729.797 M729.797,681.594h-85.73
						c-2.738,0-4.957,2.219-4.957,4.957v157.621c0,2.738,2.219,4.961,4.957,4.961h157.621c2.738,0,4.961-2.223,4.961-4.961v-90.23
						c0-1.375-0.566-2.68-1.57-3.621l-71.891-67.387C732.269,682.07,731.059,681.594,729.797,681.594L729.797,681.594z"/>
				</g>
				<g>
					<g>
						<path style="fill:#0E739A;" d="M673.633,805.668c-1.371,0-2.481-1.109-2.481-2.481v-98.488c0-1.367,1.109-2.481,2.481-2.481
							h51.621c0.625,0,1.23,0.234,1.688,0.664l46.859,43.434c0.508,0.469,0.793,1.125,0.793,1.816v55.055
							c0,1.371-1.109,2.481-2.48,2.481H673.633z"/>
						<path style="fill:#31343C;" d="M725.254,704.699l46.859,43.434v55.055h-98.48v-98.488H725.254 M725.254,699.734h-51.621
							c-2.738,0-4.961,2.223-4.961,4.965v98.488c0,2.738,2.223,4.961,4.961,4.961h98.48c2.738,0,4.961-2.223,4.961-4.961v-55.055
							c0-1.383-0.574-2.699-1.586-3.637l-46.863-43.434C727.711,700.215,726.508,699.734,725.254,699.734L725.254,699.734z"/>
					</g>
					<g>
						<path style="fill:#91CBEE;" d="M682.129,788.684c-1.371,0-2.481-1.109-2.481-2.48v-76.129c0-1.371,1.109-2.481,2.481-2.481
							h34.23c0.625,0,1.227,0.234,1.684,0.664l47.269,43.867c0.508,0.469,0.797,1.125,0.797,1.816v32.262
							c0,1.371-1.113,2.48-2.48,2.48H682.129z"/>
						<path style="fill:#31343C;" d="M716.359,710.074l47.27,43.867v32.262h-81.5v-76.129H716.359 M716.359,705.113h-34.23
							c-2.738,0-4.961,2.223-4.961,4.961v76.129c0,2.738,2.223,4.961,4.961,4.961h81.5c2.738,0,4.957-2.223,4.957-4.961v-32.262
							c0-1.379-0.574-2.699-1.582-3.633l-47.27-43.867C718.816,705.586,717.609,705.113,716.359,705.113L716.359,705.113z"/>
					</g>
				</g>
			</g>
			<g>
				<g>
					<g>
						<rect x="1439.449" y="822.648" style="fill:#31343C;" width="4.32" height="128.289"/>
					</g>
					<g>
						<rect x="1490.52" y="822.648" style="fill:#31343C;" width="4.316" height="128.289"/>
					</g>
				</g>
				<g>
					<g>
						<rect x="1465.73" y="955.992" style="fill:#31343C;" width="4.309" height="84.336"/>
					</g>
				</g>
				<g>
					<path style="fill:#C46D1F;" d="M1467.145,1003.816c-0.527,0-1.055-0.168-1.492-0.496l-31.902-24.027
						c-0.621-0.465-0.988-1.203-0.988-1.981v-31.254c0-1.371,1.109-2.48,2.48-2.48h63.824c1.367,0,2.48,1.109,2.48,2.48v31.254
						c0,0.777-0.367,1.516-0.992,1.981l-31.918,24.027C1468.195,1003.648,1467.672,1003.816,1467.145,1003.816z"/>
					<path style="fill:#31343C;" d="M1499.066,946.059v31.254l-31.922,24.023l-31.902-24.023v-31.254H1499.066 M1499.066,941.098
						h-63.824c-2.738,0-4.961,2.223-4.961,4.961v31.254c0,1.559,0.73,3.023,1.973,3.961l31.902,24.027
						c0.887,0.664,1.934,0.996,2.988,0.996c1.051,0,2.098-0.332,2.98-0.996l31.922-24.023c1.246-0.941,1.98-2.406,1.98-3.965
						v-31.254C1504.027,943.32,1501.805,941.098,1499.066,941.098L1499.066,941.098z"/>
				</g>
				<g>
					<path style="fill:#F4AA2A;" d="M1467.145,863.957c-22.777,0-41.313-18.531-41.313-41.309c0-22.785,18.535-41.32,41.313-41.32
						s41.309,18.535,41.309,41.32C1508.453,845.426,1489.922,863.957,1467.145,863.957z"/>
					<path style="fill:#31343C;" d="M1467.145,783.809c21.445,0,38.828,17.387,38.828,38.84c0,21.445-17.383,38.828-38.828,38.828
						c-21.438,0-38.832-17.383-38.832-38.828C1428.313,801.195,1445.707,783.809,1467.145,783.809 M1467.145,778.848
						c-24.148,0-43.789,19.644-43.789,43.801c0,24.145,19.641,43.789,43.789,43.789c24.145,0,43.789-19.644,43.789-43.789
						C1510.934,798.492,1491.289,778.848,1467.145,778.848L1467.145,778.848z"/>
				</g>
				<g>
					<path style="fill:#475054;" d="M1467.145,855.066c-17.875,0-32.414-14.543-32.414-32.418s14.539-32.418,32.414-32.418
						c17.879,0,32.422,14.543,32.422,32.418S1485.023,855.066,1467.145,855.066z"/>
					<path style="fill:#31343C;" d="M1467.145,792.711c16.535,0,29.941,13.402,29.941,29.938c0,16.527-13.406,29.938-29.941,29.938
						s-29.934-13.41-29.934-29.938C1437.211,806.113,1450.609,792.711,1467.145,792.711 M1467.145,787.746
						c-19.246,0-34.895,15.656-34.895,34.902s15.648,34.902,34.895,34.902c19.242,0,34.902-15.656,34.902-34.902
						S1486.387,787.746,1467.145,787.746L1467.145,787.746z"/>
				</g>
				<g>
					
						<ellipse transform="matrix(0.7071 -0.7071 0.7071 0.7071 -151.9836 1278.376)" style="fill:#C0D1DA;" cx="1467.145" cy="822.648" rx="27.277" ry="27.277"/>
					<path style="fill:#31343C;" d="M1467.145,797.848c13.699,0,24.797,11.102,24.797,24.801c0,13.691-11.098,24.797-24.797,24.797
						s-24.801-11.106-24.801-24.797C1442.344,808.949,1453.445,797.848,1467.145,797.848 M1467.145,792.891
						c-16.41,0-29.758,13.348-29.758,29.758c0,16.41,13.348,29.758,29.758,29.758s29.758-13.348,29.758-29.758
						C1496.902,806.238,1483.555,792.891,1467.145,792.891L1467.145,792.891z"/>
				</g>
				<g>
					<path style="fill:#F4AA2A;" d="M1467.145,992.152c-0.43,0-0.859-0.113-1.242-0.332L1434,973.394
						c-0.766-0.445-1.238-1.262-1.238-2.148v-36.852c0-1.371,1.109-2.48,2.48-2.48h63.824c1.367,0,2.48,1.109,2.48,2.48v36.852
						c0,0.887-0.473,1.703-1.238,2.148l-31.922,18.426C1468,992.043,1467.574,992.152,1467.145,992.152z"/>
					<path style="fill:#31343C;" d="M1499.066,934.394v36.852l-31.922,18.426l-31.902-18.426v-36.852H1499.066 M1499.066,929.434
						h-63.824c-2.738,0-4.961,2.223-4.961,4.961v36.852c0,1.773,0.945,3.41,2.477,4.297l31.902,18.426
						c0.77,0.445,1.625,0.664,2.484,0.664c0.855,0,1.715-0.219,2.48-0.664l31.922-18.426c1.535-0.887,2.48-2.524,2.48-4.297v-36.852
						C1504.027,931.656,1501.805,929.434,1499.066,929.434L1499.066,929.434z"/>
				</g>
				<g>
					
						<ellipse transform="matrix(0.0031 -1 1 0.0031 506.5427 2420.1228)" style="fill:#C46D1F;" cx="1467.145" cy="955.992" rx="11.984" ry="11.98"/>
					<path style="fill:#31343C;" d="M1467.145,946.484c5.25,0,9.5,4.262,9.5,9.508s-4.25,9.504-9.5,9.504
						c-5.254,0-9.5-4.258-9.5-9.504S1461.891,946.484,1467.145,946.484 M1467.145,941.527c-7.977,0-14.461,6.488-14.461,14.465
						c0,7.977,6.484,14.465,14.461,14.465s14.461-6.488,14.461-14.465C1481.605,948.016,1475.121,941.527,1467.145,941.527
						L1467.145,941.527z"/>
				</g>
				<g>
					<path style="fill:#C46D1F;" d="M1467.145,975.168c-10.574,0-19.172-8.606-19.172-19.176c0-10.574,8.598-19.176,19.172-19.176
						c10.578,0,19.18,8.602,19.18,19.176C1486.324,966.563,1477.723,975.168,1467.145,975.168z M1467.145,944.856
						c-6.133,0-11.125,4.996-11.125,11.137c0,6.137,4.992,11.133,11.125,11.133c6.145,0,11.141-4.996,11.141-11.133
						C1478.285,949.852,1473.289,944.856,1467.145,944.856z"/>
					<path style="fill:#31343C;" d="M1467.145,939.293c9.227,0,16.699,7.476,16.699,16.699c0,9.211-7.473,16.695-16.699,16.695
						c-9.219,0-16.691-7.484-16.691-16.695C1450.453,946.769,1457.926,939.293,1467.145,939.293 M1467.145,969.606
						c7.523,0,13.621-6.098,13.621-13.613c0-7.519-6.098-13.617-13.621-13.617c-7.512,0-13.602,6.098-13.602,13.617
						C1453.543,963.508,1459.633,969.606,1467.145,969.606 M1467.145,934.336c-11.941,0-21.652,9.715-21.652,21.656
						s9.711,21.656,21.652,21.656c11.945,0,21.66-9.715,21.66-21.656S1479.09,934.336,1467.145,934.336L1467.145,934.336z
						 M1467.145,964.641c-4.766,0-8.645-3.879-8.645-8.648c0-4.769,3.879-8.66,8.645-8.66c4.773,0,8.66,3.891,8.66,8.66
						C1475.805,960.762,1471.918,964.641,1467.145,964.641L1467.145,964.641z"/>
				</g>
				<g>
					<path style="fill:#F4AA2A;" d="M1468.168,1121.66c-22.145,0-40.16-18.016-40.16-40.16c0-19.043,13.695-35.578,32.195-39.32
						v-20.566c0-1.367,1.109-2.48,2.477-2.48h10.992c1.371,0,2.48,1.113,2.48,2.48v31.969c0,0.109-0.02,0.559-0.02,0.559
						c0,0.742-0.332,1.449-0.91,1.918c-0.449,0.367-1.004,0.559-1.57,0.559c-0.164,0-0.332-0.012-0.492-0.047
						c-1.652-0.336-3.332-0.508-4.992-0.508c-14.023,0-25.43,11.41-25.43,25.438c0,14.023,11.406,25.434,25.43,25.434
						c9.801,0,18.563-5.496,22.859-14.348c0.414-0.855,1.281-1.395,2.23-1.395h10.555c0.797,0,1.555,0.383,2.016,1.039
						c0.469,0.652,0.59,1.484,0.332,2.246C1500.594,1110.738,1485.328,1121.66,1468.168,1121.66z"/>
					<path style="fill:#31343C;" d="M1473.672,1021.613v31.969h-0.02v0.559c-1.773-0.363-3.594-0.559-5.484-0.559
						c-15.406,0-27.906,12.504-27.906,27.918c0,15.406,12.5,27.914,27.906,27.914c11.039,0,20.57-6.438,25.09-15.742h10.555
						c-5.078,14.84-19.09,25.508-35.645,25.508c-20.805,0-37.68-16.871-37.68-37.68c0-18.941,13.992-34.57,32.191-37.238v-22.648
						H1473.672 M1503.813,1093.672h0.023 M1473.672,1016.652h-10.992c-2.738,0-4.957,2.223-4.957,4.961v18.586
						c-18.633,4.723-32.195,21.77-32.195,41.301c0,23.512,19.129,42.641,42.641,42.641c18.105,0,34.227-11.449,40.223-28.531
						c0.254-0.594,0.395-1.25,0.395-1.938c0-2.738-2.207-4.961-4.949-4.961h-0.023h-10.555c-1.898,0-3.633,1.082-4.461,2.793
						c-3.879,7.984-11.785,12.945-20.629,12.945c-12.652,0-22.949-10.289-22.949-22.949c0-12.656,10.297-22.957,22.949-22.957
						c1.516,0,2.984,0.152,4.496,0.457c0.328,0.07,0.656,0.098,0.988,0.098c1.137,0,2.246-0.387,3.137-1.113
						c1.156-0.945,1.824-2.355,1.824-3.844v-0.117c0.016-0.141,0.02-0.293,0.02-0.441v-31.969
						C1478.633,1018.875,1476.41,1016.652,1473.672,1016.652L1473.672,1016.652z"/>
				</g>
			</g>
		</g>
		<g>
			<path style="fill:#C0D1DA;" d="M627.871,1882.832c-1.367,0-2.477-1.109-2.477-2.48v-108.461c0-1.367,1.109-2.48,2.477-2.48
				h194.777c1.367,0,2.481,1.113,2.481,2.48v108.461c0,1.371-1.113,2.48-2.481,2.48H627.871z"/>
			<path style="fill:#31343C;" d="M822.648,1771.891v108.461H627.871v-108.461H822.648 M822.648,1766.934H627.871
				c-2.738,0-4.957,2.219-4.957,4.957v108.461c0,2.738,2.219,4.961,4.957,4.961h194.777c2.738,0,4.961-2.223,4.961-4.961v-108.461
				C827.609,1769.152,825.387,1766.934,822.648,1766.934L822.648,1766.934z"/>
		</g>
		<g>
			<path style="fill:#9CA7B0;" d="M767.176,1882.832c-1.371,0-2.481-1.109-2.481-2.48v-108.461c0-1.367,1.109-2.48,2.481-2.48
				h55.473c1.367,0,2.481,1.113,2.481,2.48v108.461c0,1.371-1.113,2.48-2.481,2.48H767.176z"/>
			<path style="fill:#31343C;" d="M822.648,1771.891v108.461h-55.473v-108.461H822.648 M822.648,1766.934h-55.473
				c-2.738,0-4.961,2.219-4.961,4.957v108.461c0,2.738,2.223,4.961,4.961,4.961h55.473c2.738,0,4.961-2.223,4.961-4.961v-108.461
				C827.609,1769.152,825.387,1766.934,822.648,1766.934L822.648,1766.934z"/>
		</g>
		<g>
			<path style="fill:#9CA7B0;" d="M604.438,1907.199c-1.367,0-2.481-1.113-2.481-2.48v-48.727c0-1.367,1.113-2.48,2.481-2.48
				h241.644c1.371,0,2.481,1.113,2.481,2.48v48.727c0,1.367-1.109,2.48-2.481,2.48H604.438z"/>
			<path style="fill:#31343C;" d="M846.082,1855.992v48.727H604.438v-48.727H846.082 M846.082,1851.035H604.438
				c-2.738,0-4.961,2.219-4.961,4.957v48.727c0,2.742,2.223,4.965,4.961,4.965h241.644c2.738,0,4.961-2.223,4.961-4.965v-48.727
				C851.043,1853.254,848.82,1851.035,846.082,1851.035L846.082,1851.035z"/>
		</g>
		<g>
			<path style="fill:#879199;" d="M781.801,1907.199c-1.371,0-2.481-1.113-2.481-2.48v-48.727c0-1.367,1.109-2.48,2.481-2.48h64.281
				c1.371,0,2.481,1.113,2.481,2.48v48.727c0,1.367-1.109,2.48-2.481,2.48H781.801z"/>
			<path style="fill:#31343C;" d="M846.082,1855.992v48.727h-64.281v-48.727H846.082 M846.082,1851.035h-64.281
				c-2.738,0-4.961,2.219-4.961,4.957v48.727c0,2.742,2.223,4.965,4.961,4.965h64.281c2.738,0,4.961-2.223,4.961-4.965v-48.727
				C851.043,1853.254,848.82,1851.035,846.082,1851.035L846.082,1851.035z"/>
		</g>
		<g>
			<polygon style="fill:#FFFFFF;" points="698.801,786.203 690.519,786.203 731.559,724.176 736.84,728.813 			"/>
		</g>
		<g>
			<polygon style="fill:#FFFFFF;" points="715.863,786.203 707.57,786.203 742.023,734.41 747.316,739.047 			"/>
		</g>
		<g>
			<path style="fill:#F4AA2A;" d="M407.859,869.75c-1.367,0-2.48-1.109-2.48-2.481v-41.531c0-1.371,1.113-2.48,2.48-2.48h90.281
				c1.367,0,2.48,1.109,2.48,2.48v41.531c0,1.371-1.113,2.481-2.48,2.481H407.859z"/>
			<path style="fill:#31343C;" d="M498.141,825.738v41.531h-90.281v-41.531H498.141 M498.141,820.777h-90.281
				c-2.738,0-4.961,2.223-4.961,4.961v41.531c0,2.746,2.223,4.965,4.961,4.965h90.281c2.738,0,4.957-2.219,4.957-4.965v-41.531
				C503.098,823,500.879,820.777,498.141,820.777L498.141,820.777z"/>
		</g>
		<g>
			<path style="fill:#C46D1F;" d="M472.434,869.75c-1.367,0-2.48-1.109-2.48-2.481v-41.531c0-1.371,1.113-2.48,2.48-2.48h25.707
				c1.367,0,2.48,1.109,2.48,2.48v41.531c0,1.371-1.113,2.481-2.48,2.481H472.434z"/>
			<path style="fill:#31343C;" d="M498.141,825.738v41.531h-25.707v-41.531H498.141 M498.141,820.777h-25.707
				c-2.738,0-4.957,2.223-4.957,4.961v41.531c0,2.746,2.219,4.965,4.957,4.965h25.707c2.738,0,4.957-2.219,4.957-4.965v-41.531
				C503.098,823,500.879,820.777,498.141,820.777L498.141,820.777z"/>
		</g>
	</g>
	<g>
		<g>
			<path style="fill:#707B81;" d="M1004.016,1242.477c-19.422,0-35.219-15.793-35.219-35.207c0-19.422,15.797-35.223,35.219-35.223
				c19.418,0,35.219,15.801,35.219,35.223C1039.234,1226.684,1023.434,1242.477,1004.016,1242.477z"/>
			<path style="fill:#31343C;" d="M1004.016,1173.652c18.563,0,33.617,15.047,33.617,33.617c0,18.563-15.055,33.605-33.617,33.605
				c-18.563,0-33.617-15.043-33.617-33.605C970.398,1188.699,985.453,1173.652,1004.016,1173.652 M1004.016,1170.445
				c-20.309,0-36.824,16.516-36.824,36.824c0,20.297,16.516,36.813,36.824,36.813c20.305,0,36.824-16.516,36.824-36.813
				C1040.84,1186.961,1024.32,1170.445,1004.016,1170.445L1004.016,1170.445z"/>
		</g>
		<g>
			<path style="fill:#F4AA2A;" d="M1004.016,1183.57c-29.938,0-54.301-24.359-54.301-54.305c0-18.867-5.543-26.645-11.965-35.648
				c-3.352-4.703-6.816-9.559-9.906-16.383c-6.273-12.055-9.609-25.715-9.609-39.438c0-47.301,38.477-85.781,85.781-85.781
				c47.293,0,85.773,38.48,85.773,85.781c0,13.625-3.125,26.676-9.277,38.793c-2.426,4.762-5.238,9.223-8.438,13.398
				c-7.391,10.883-13.758,20.262-13.758,39.277C1058.316,1159.211,1033.953,1183.57,1004.016,1183.57z"/>
			<path style="fill:#31343C;" d="M1004.016,953.617c46.488,0,84.168,37.691,84.168,84.18c0,13.703-3.293,26.633-9.098,38.066h0.008
				c-0.027,0.051-0.059,0.094-0.086,0.141c-2.34,4.602-5.098,8.949-8.207,13.008c-7.57,11.148-14.09,20.688-14.09,40.254
				c0,29.105-23.59,52.703-52.695,52.703s-52.695-23.598-52.695-52.703s-12.961-32.68-22.012-52.695
				c-6.043-11.605-9.473-24.789-9.473-38.773C919.836,991.309,957.527,953.617,1004.016,953.617 M1079.094,1075.863h0.023
				 M1004.016,950.414c-48.184,0-87.387,39.199-87.387,87.383c0,13.973,3.402,27.895,9.832,40.254
				c3.082,6.813,6.75,11.957,9.988,16.496c6.516,9.141,11.664,16.363,11.664,34.719c0,30.828,25.078,55.906,55.902,55.906
				c30.824,0,55.902-25.078,55.902-55.906c0-18.523,5.945-27.273,13.465-38.352c3.176-4.152,6.012-8.629,8.387-13.273
				c0.137-0.203,0.246-0.418,0.336-0.652c6.164-12.254,9.285-25.438,9.285-39.191
				C1091.391,989.613,1052.195,950.414,1004.016,950.414L1004.016,950.414z"/>
		</g>
		<g>
			<path style="fill:#C46D1F;" d="M1025.844,1167.512c-29.105,0-52.707-23.59-52.707-52.699c0-29.105-12.941-32.688-22.004-52.703
				c-6.031-11.605-9.469-24.777-9.469-38.77c0-24.586,10.551-46.707,27.359-62.102c-29.016,13.293-49.188,42.559-49.188,76.559
				c0,13.984,3.43,27.168,9.473,38.773c9.051,20.016,22.012,23.59,22.012,52.695s23.59,52.703,52.695,52.703
				c15.512,0,29.457-6.699,39.094-17.367C1037.699,1166.48,1031.895,1167.512,1025.844,1167.512z"/>
		</g>
		<g>
			<path style="fill:#C0D1DA;" d="M953.785,1208.277c-0.887,0-1.605-0.719-1.605-1.605v-58.336c0-0.887,0.719-1.602,1.605-1.602
				h100.461c0.887,0,1.602,0.715,1.602,1.602v58.336c0,0.887-0.715,1.605-1.602,1.605H953.785z"/>
			<path style="fill:#31343C;" d="M1054.246,1148.336v58.336H953.785v-58.336H1054.246 M1054.246,1145.129H953.785
				c-1.77,0-3.207,1.438-3.207,3.207v58.336c0,1.77,1.438,3.207,3.207,3.207h100.461c1.77,0,3.207-1.438,3.207-3.207v-58.336
				C1057.453,1146.566,1056.016,1145.129,1054.246,1145.129L1054.246,1145.129z"/>
		</g>
		<g>
			<path style="fill:#707B81;" d="M953.785,1189.102c-0.887,0-1.605-0.719-1.605-1.606v-19.984c0-0.887,0.719-1.601,1.605-1.601
				h100.461c0.887,0,1.602,0.715,1.602,1.601v19.984c0,0.887-0.715,1.606-1.602,1.606H953.785z"/>
			<path style="fill:#31343C;" d="M1054.246,1167.512v19.984H953.785v-19.984H1054.246 M1054.246,1164.305H953.785
				c-1.77,0-3.207,1.438-3.207,3.207v19.984c0,1.77,1.438,3.207,3.207,3.207h100.461c1.77,0,3.207-1.438,3.207-3.207v-19.984
				C1057.453,1165.742,1056.016,1164.305,1054.246,1164.305L1054.246,1164.305z"/>
		</g>
	</g>
	<g>
		<g>
			<path style="fill:#475054;" d="M681.543,1911.125c-0.984,0-1.832-0.707-2.008-1.676l-15.234-83.25H532.434l15.098,82.52
				c0.109,0.594-0.051,1.207-0.438,1.672c-0.391,0.465-0.965,0.734-1.57,0.734h-24.445c-0.984,0-1.832-0.707-2.008-1.676
				l-116.023-633.988c-0.109-0.594,0.055-1.207,0.438-1.668c0.391-0.469,0.965-0.738,1.57-0.738h24.438
				c0.984,0,1.832,0.707,2.008,1.676l10.898,59.539h131.875l-10.762-58.809c-0.105-0.594,0.055-1.207,0.441-1.668
				c0.387-0.469,0.961-0.738,1.566-0.738h24.438c0.984,0,1.832,0.707,2.008,1.676L708,1908.719c0.105,0.594-0.055,1.207-0.441,1.672
				s-0.965,0.734-1.566,0.734H681.543z M661.211,1809.34l-14.293-78.148H515.039l14.305,78.148H661.211z M643.828,1714.316
				l-14.305-78.137H497.656l14.297,78.137H643.828z M626.434,1619.305l-14.301-78.141H480.266l14.301,78.141H626.434z
				 M609.043,1524.289l-14.297-78.141H462.871l14.305,78.141H609.043z M591.66,1429.277l-14.297-78.141H445.488l14.293,78.141
				H591.66z"/>
			<path style="fill:#31343C;" d="M589.957,1275.098l116.035,633.984h-24.449L666,1824.16H529.984l15.539,84.922h-24.445
				l-116.023-633.984h24.438l11.207,61.211h136.027l-11.207-61.211H589.957 M458.082,1431.32h136.027l-15.047-82.227H443.035
				L458.082,1431.32 M475.473,1526.328h136.02l-15.043-82.219H460.418L475.473,1526.328 M492.867,1621.344h136.019l-15.055-82.219
				H477.813L492.867,1621.344 M510.25,1716.359h136.031l-15.055-82.219h-136.02L510.25,1716.359 M527.644,1811.379h136.02
				l-15.047-82.23H512.59L527.644,1811.379 M589.957,1271.016h-24.438c-1.207,0-2.359,0.535-3.137,1.469
				c-0.773,0.926-1.098,2.156-0.879,3.348l10.324,56.395h-127.73l-10.59-57.867c-0.355-1.938-2.047-3.344-4.016-3.344h-24.438
				c-1.211,0-2.359,0.535-3.137,1.469c-0.777,0.926-1.098,2.156-0.879,3.348l116.023,633.988c0.356,1.938,2.047,3.348,4.016,3.348
				h24.445c1.211,0,2.359-0.543,3.141-1.469c0.773-0.934,1.094-2.156,0.875-3.352l-14.66-80.105h127.723l14.926,81.578
				c0.356,1.938,2.047,3.348,4.016,3.348h24.449c1.207,0,2.355-0.543,3.137-1.469c0.773-0.934,1.098-2.156,0.879-3.352
				l-116.035-633.988C593.617,1272.422,591.926,1271.016,589.957,1271.016L589.957,1271.016z M447.934,1353.176h127.73
				l13.547,74.063H461.48L447.934,1353.176L447.934,1353.176z M465.316,1448.191h127.73l13.551,74.055H478.875L465.316,1448.191
				L465.316,1448.191z M482.711,1543.207H610.43l13.559,74.055H496.27L482.711,1543.207L482.711,1543.207z M500.102,1638.223
				h127.723l13.559,74.055H513.652L500.102,1638.223L500.102,1638.223z M517.488,1733.23h127.731l13.547,74.066H531.047
				L517.488,1733.23L517.488,1733.23z"/>
		</g>
		<g>
			<g>
				<path style="fill:#C0D1DA;" d="M264.574,1911.125c-0.605,0-1.18-0.27-1.57-0.734c-0.387-0.465-0.547-1.078-0.438-1.672
					l116.031-633.988c0.176-0.969,1.023-1.676,2.008-1.676h24.449c0.602,0,1.18,0.27,1.566,0.738
					c0.387,0.461,0.547,1.074,0.441,1.668l-116.035,633.988c-0.176,0.969-1.023,1.676-2.008,1.676H264.574z"/>
				<path style="fill:#31343C;" d="M405.055,1275.098h0.023 M405.055,1275.098L289.02,1909.082h-24.445l116.031-633.984H405.055
					 M405.078,1271.016h-0.023h-24.449c-1.969,0-3.66,1.406-4.016,3.344l-116.031,633.988c-0.219,1.195,0.102,2.418,0.875,3.352
					c0.781,0.926,1.93,1.469,3.141,1.469h24.445c1.969,0,3.66-1.41,4.016-3.348l115.977-633.676c0.09-0.336,0.133-0.688,0.133-1.047
					C409.145,1272.84,407.332,1271.016,405.078,1271.016L405.078,1271.016z"/>
			</g>
			<g>
				<path style="fill:#707B81;" d="M371.836,1351.137c-0.59,0-1.148-0.258-1.539-0.703c-0.387-0.441-0.566-1.039-0.484-1.621
					l1.773-12.785c0.145-1.008,1.004-1.758,2.024-1.758h169.754c1.125,0,2.039,0.914,2.039,2.039v12.785
					c0,1.125-0.914,2.043-2.039,2.043H371.836z"/>
				<path style="fill:#31343C;" d="M543.363,1336.309v12.785H371.836l1.774-12.785H543.363 M543.363,1332.227H373.609
					c-2.035,0-3.762,1.5-4.043,3.523l-1.773,12.785c-0.16,1.168,0.188,2.351,0.965,3.238c0.773,0.891,1.898,1.402,3.078,1.402
					h171.527c2.254,0,4.082-1.824,4.082-4.082v-12.785C547.445,1334.055,545.617,1332.227,543.363,1332.227L543.363,1332.227z"/>
			</g>
			<g>
				<path style="fill:#707B81;" d="M353.75,1446.148c-0.59,0-1.148-0.258-1.539-0.699c-0.383-0.445-0.566-1.039-0.48-1.621
					l1.773-12.793c0.141-1.008,1.004-1.758,2.019-1.758h169.762c1.125,0,2.043,0.918,2.043,2.043v12.789
					c0,1.125-0.918,2.039-2.043,2.039H353.75z"/>
				<path style="fill:#31343C;" d="M525.285,1431.32v12.789H353.75l1.773-12.789H525.285 M525.285,1427.238H355.523
					c-2.035,0-3.762,1.504-4.043,3.52l-1.773,12.789c-0.16,1.172,0.191,2.355,0.965,3.242c0.773,0.891,1.898,1.402,3.078,1.402
					h171.535c2.258,0,4.086-1.828,4.086-4.082v-12.789C529.371,1429.063,527.543,1427.238,525.285,1427.238L525.285,1427.238z"/>
			</g>
			<g>
				<path style="fill:#707B81;" d="M335.676,1541.164c-0.59,0-1.148-0.258-1.539-0.699c-0.387-0.445-0.566-1.039-0.484-1.625
					l1.773-12.793c0.145-1.008,1.004-1.758,2.023-1.758h169.754c1.125,0,2.039,0.914,2.039,2.039v12.797
					c0,1.125-0.914,2.039-2.039,2.039H335.676z"/>
				<path style="fill:#31343C;" d="M507.203,1526.328v12.797H335.676l1.773-12.797H507.203 M507.203,1522.246H337.449
					c-2.035,0-3.762,1.508-4.043,3.523l-1.773,12.793c-0.16,1.172,0.188,2.355,0.965,3.242c0.773,0.891,1.898,1.402,3.078,1.402
					h171.527c2.254,0,4.082-1.828,4.082-4.082v-12.797C511.285,1524.074,509.457,1522.246,507.203,1522.246L507.203,1522.246z"/>
			</g>
			<g>
				<path style="fill:#707B81;" d="M319.285,1636.18c-0.59,0-1.148-0.258-1.539-0.699c-0.383-0.445-0.566-1.039-0.48-1.625
					l1.773-12.793c0.141-1.008,1.004-1.758,2.02-1.758h169.754c1.125,0,2.039,0.914,2.039,2.039v12.797
					c0,1.125-0.914,2.039-2.039,2.039H319.285z"/>
				<path style="fill:#31343C;" d="M490.813,1621.344v12.797H319.285l1.773-12.797H490.813 M490.813,1617.262H321.059
					c-2.035,0-3.762,1.504-4.043,3.523l-1.773,12.793c-0.16,1.168,0.191,2.355,0.965,3.242c0.773,0.891,1.898,1.402,3.078,1.402
					h171.527c2.254,0,4.082-1.828,4.082-4.082v-12.797C494.895,1619.09,493.066,1617.262,490.813,1617.262L490.813,1617.262z"/>
			</g>
			<g>
				<path style="fill:#707B81;" d="M302.469,1731.191c-0.59,0-1.152-0.258-1.539-0.703c-0.387-0.441-0.566-1.039-0.484-1.621
					l1.773-12.789c0.141-1.008,1.004-1.762,2.023-1.762h169.75c1.125,0,2.043,0.918,2.043,2.043v12.789
					c0,1.125-0.918,2.043-2.043,2.043H302.469z"/>
				<path style="fill:#31343C;" d="M473.992,1716.359v12.789H302.469l1.773-12.789H473.992 M473.992,1712.277h-169.75
					c-2.039,0-3.762,1.504-4.047,3.523l-1.773,12.789c-0.16,1.168,0.191,2.348,0.965,3.238c0.777,0.891,1.902,1.402,3.082,1.402
					h171.523c2.258,0,4.086-1.824,4.086-4.082v-12.789C478.078,1714.105,476.25,1712.277,473.992,1712.277L473.992,1712.277z"/>
			</g>
			<g>
				<path style="fill:#707B81;" d="M284.391,1826.199c-0.59,0-1.148-0.258-1.539-0.699c-0.383-0.445-0.563-1.039-0.48-1.625
					l1.773-12.777c0.141-1.008,1.004-1.758,2.02-1.758h169.754c1.125,0,2.043,0.914,2.043,2.039v12.781
					c0,1.125-0.918,2.039-2.043,2.039H284.391z"/>
				<path style="fill:#31343C;" d="M455.918,1811.379v12.781H284.391l1.773-12.781H455.918 M455.918,1807.297H286.164
					c-2.035,0-3.758,1.504-4.043,3.523l-1.773,12.777c-0.16,1.172,0.191,2.355,0.965,3.242c0.773,0.891,1.902,1.402,3.078,1.402
					h171.527c2.258,0,4.082-1.828,4.082-4.082v-12.781C460,1809.125,458.176,1807.297,455.918,1807.297L455.918,1807.297z"/>
			</g>
			<g>
				<path style="fill:#C0D1DA;" d="M425.039,1911.125c-0.605,0-1.18-0.27-1.57-0.734c-0.383-0.465-0.543-1.078-0.438-1.672
					l116.035-633.988c0.172-0.969,1.019-1.676,2.004-1.676h24.449c0.606,0,1.18,0.27,1.57,0.738
					c0.383,0.461,0.543,1.074,0.438,1.668l-116.031,633.988c-0.176,0.969-1.023,1.676-2.008,1.676H425.039z"/>
				<path style="fill:#31343C;" d="M565.519,1275.098h0.024 M565.519,1275.098l-116.031,633.984h-24.449l116.031-633.984H565.519
					 M565.543,1271.016h-0.024H541.07c-1.965,0-3.656,1.406-4.012,3.344l-116.035,633.988c-0.219,1.195,0.102,2.418,0.879,3.352
					c0.777,0.926,1.93,1.469,3.137,1.469h24.449c1.969,0,3.656-1.41,4.012-3.348l115.977-633.676
					c0.094-0.336,0.137-0.688,0.137-1.047C569.613,1272.84,567.801,1271.016,565.543,1271.016L565.543,1271.016z"/>
			</g>
		</g>
		<g>
			<path style="fill:#F4AA2A;" d="M345.77,1284.711c-1.125,0-2.039-0.918-2.039-2.043v-35.313c0-1.125,0.914-2.043,2.039-2.043
				h258.133c1.125,0,2.043,0.918,2.043,2.043v35.313c0,1.125-0.918,2.043-2.043,2.043H345.77z"/>
			<path style="fill:#31343C;" d="M603.902,1247.355v35.313H345.77v-35.313H603.902 M603.902,1243.273H345.77
				c-2.254,0-4.082,1.828-4.082,4.082v35.313c0,2.258,1.828,4.082,4.082,4.082h258.133c2.254,0,4.082-1.824,4.082-4.082v-35.313
				C607.984,1245.102,606.156,1243.273,603.902,1243.273L603.902,1243.273z"/>
		</g>
		<g>
			<rect x="345.77" y="1247.355" style="fill:#C46D1F;" width="258.133" height="17.656"/>
		</g>
	</g>
</g>
</svg>
